<svg width="78" height="79" viewBox="0 0 78 79" fill="none" xmlns="http://www.w3.org/2000/svg">
<rect y="0.5" width="78" height="78" rx="39" fill="url(#paint0_linear_0_1955)" fill-opacity="0.05"/>
<rect x="12" y="12.5" width="54" height="54" rx="27" fill="url(#paint1_linear_0_1955)" fill-opacity="0.05"/>
<g clip-path="url(#clip0_0_1955)">
<path d="M48.6576 38.5185C48.6576 39.2663 48.6677 40.0093 48.6526 40.7571C48.6426 41.1606 48.758 41.5148 48.9688 41.8494C49.5108 42.7251 50.2284 43.4582 50.9561 44.1815C51.2271 44.4521 51.5082 44.7079 51.7942 44.9588C51.9348 45.0818 52 45.2098 52 45.4016C51.99 46.2233 51.99 47.04 51.995 47.8617C52 48.5456 51.6989 49.0572 51.0716 49.3426C50.4292 49.6329 49.827 49.5099 49.3 49.0622C48.211 48.1274 47.127 47.1876 46.0429 46.2528C45.3052 45.6132 44.5725 44.9638 43.8197 44.3438C43.5537 44.1224 43.2375 43.9601 42.9314 43.7928C42.4797 43.5468 41.9929 43.4139 41.466 43.4336C41.0846 43.4484 40.6931 43.4533 40.3117 43.4238C39.7546 43.3795 39.3582 43.0007 39.2829 42.4791C39.2126 42.0216 39.4887 41.5296 39.9504 41.3524C40.126 41.2836 40.3217 41.254 40.5125 41.254C41.9578 41.2442 43.4032 41.2491 44.8535 41.2491C45.3955 41.2491 45.5913 41.0572 45.5913 40.521C45.5913 39.4385 45.5862 38.3561 45.5913 37.2737C45.5963 36.8604 45.4507 36.5357 45.1346 36.2553C43.3128 34.6513 41.5011 33.0376 39.6844 31.4238C39.1976 30.9908 39.1424 30.3512 39.5489 29.8838C39.9504 29.4164 40.6078 29.3721 41.1247 29.7657C43.4483 31.5369 45.7669 33.3082 48.1006 35.0695C48.487 35.3598 48.6677 35.7141 48.6626 36.1815C48.6526 36.9588 48.6576 37.7362 48.6576 38.5185Z" fill="#4090B5"/>
<path d="M25.005 46.7054C25.005 46.2626 25.01 45.8198 25 45.377C24.995 45.2048 25.0652 45.0917 25.1807 44.9736C25.9385 44.211 26.6863 43.4385 27.429 42.6612C27.5846 42.4988 27.7 42.3069 27.8355 42.1298C28.1918 41.6526 28.3574 41.131 28.3424 40.5209C28.3123 39.1138 28.3474 37.7018 28.3273 36.2897C28.3173 35.7337 28.518 35.3401 28.9747 34.9957C31.2933 33.2639 33.5868 31.5025 35.8903 29.746C36.3721 29.377 37.0346 29.4361 37.426 29.8789C37.8275 30.3315 37.7924 30.981 37.3257 31.4041C36.618 32.0437 35.9004 32.6685 35.1877 33.3032C34.0586 34.302 32.9294 35.3057 31.8002 36.3045C31.5342 36.5406 31.4037 36.826 31.4037 37.1704C31.4037 38.3168 31.3987 39.4631 31.4037 40.6144C31.4037 41.0375 31.6245 41.2442 32.0612 41.2442C33.5517 41.2491 35.0372 41.2442 36.5277 41.2491C37.2303 41.2491 37.7221 41.7313 37.7071 42.3807C37.697 42.8776 37.3307 43.3254 36.8238 43.3992C36.5227 43.4435 36.2065 43.4631 35.9004 43.4336C34.8716 43.3352 34.0034 43.7042 33.2355 44.3045C32.4526 44.9145 31.7199 45.5935 30.9721 46.238C29.8731 47.1827 28.779 48.1372 27.6749 49.0769C26.7816 49.8395 25.4617 49.505 25.0803 48.4176C25.0301 48.2799 25.0151 48.1273 25.01 47.9847C25 47.5615 25.005 47.1335 25.005 46.7054Z" fill="#4090B5"/>
<path d="M39.2126 39.5369C39.2126 39.7731 39.2126 39.9945 39.2126 40.2356C38.7911 40.2356 38.3896 40.2356 37.953 40.2356C37.953 40.0437 37.948 39.8567 37.953 39.6698C37.958 39.532 37.9178 39.473 37.7723 39.4385C37.3558 39.3401 36.9693 39.1728 36.608 38.8875C36.8389 38.5874 37.0597 38.302 37.2604 38.0363C37.6418 38.179 37.9881 38.3463 38.3545 38.4299C38.6205 38.489 38.9165 38.4496 39.1926 38.4053C39.4033 38.3709 39.5389 38.2085 39.5539 37.9871C39.574 37.7608 39.4535 37.6033 39.2528 37.5246C38.9115 37.3967 38.5552 37.2983 38.2089 37.1851C37.958 37.1015 37.697 37.0277 37.4511 36.9244C36.874 36.6833 36.5678 36.2552 36.5528 35.6255C36.5377 34.9662 36.7887 34.4348 37.3909 34.1495C37.7823 33.9625 38.1186 33.8247 37.9229 33.2786C38.3494 33.2786 38.7208 33.2737 39.0972 33.2885C39.1374 33.2885 39.2076 33.4115 39.2076 33.4803C39.2327 33.8985 39.2327 33.8887 39.6292 34.0265C39.86 34.1052 40.0809 34.2183 40.3318 34.3315C40.121 34.6513 39.9504 34.9318 39.7597 35.1974C39.7296 35.2368 39.6091 35.2319 39.5389 35.2122C39.2076 35.1286 38.8864 35.0203 38.5552 34.9564C38.4247 34.9318 38.2742 34.9711 38.1387 35.0056C37.9379 35.0597 37.8024 35.1925 37.7874 35.409C37.7723 35.6206 37.8677 35.7829 38.0634 35.8616C38.3193 35.965 38.5803 36.0437 38.8413 36.1273C39.1273 36.2208 39.4234 36.2897 39.6994 36.393C40.4974 36.6981 40.8186 37.1802 40.7784 37.9723C40.7383 38.7005 40.2816 39.2417 39.5288 39.4533C39.4385 39.4828 39.3431 39.5074 39.2126 39.5369Z" fill="#4090B5"/>
</g>
<defs>
<linearGradient id="paint0_linear_0_1955" x1="39" y1="0.5" x2="39" y2="78.5" gradientUnits="userSpaceOnUse">
<stop stop-color="#4090B5"/>
<stop offset="1" stop-color="#4090B5" stop-opacity="0"/>
</linearGradient>
<linearGradient id="paint1_linear_0_1955" x1="39" y1="12.5" x2="39" y2="66.5" gradientUnits="userSpaceOnUse">
<stop stop-color="#4090B5"/>
<stop offset="1" stop-color="#4090B5" stop-opacity="0"/>
</linearGradient>
<clipPath id="clip0_0_1955">
<rect width="27" height="20" fill="white" transform="translate(25 29.5)"/>
</clipPath>
</defs>
</svg>
