<svg width="36" height="36" viewBox="0 0 36 36" fill="none" xmlns="http://www.w3.org/2000/svg">
<path fill-rule="evenodd" clip-rule="evenodd" d="M17.9084 35.3409C27.4854 35.3409 35.2491 27.5772 35.2491 18.0001C35.2491 8.42313 27.4854 0.659424 17.9084 0.659424C8.33139 0.659424 0.567688 8.42313 0.567688 18.0001C0.567688 27.5772 8.33139 35.3409 17.9084 35.3409Z" fill="#262626"/>
<path fill-rule="evenodd" clip-rule="evenodd" d="M16.4946 9.98044C17.4469 9.99262 18.3956 10.0048 19.3479 10.0169C19.2837 10.6604 19.2159 11.3073 19.1551 11.9508C20.2639 12.0456 21.3411 12.4165 22.3077 12.9576C21.874 14.0095 21.4369 15.0614 20.9997 16.1133C20.1894 15.4061 19.116 15.0072 18.041 15.0075C17.7714 15.011 17.4906 15.06 17.2646 15.2112C17.1162 15.3108 17.0057 15.467 16.9719 15.6416C16.9456 15.7813 16.9506 15.939 17.026 16.066C17.1118 16.2072 17.2647 16.2932 17.4181 16.3476C17.7318 16.4637 18.0713 16.475 18.3999 16.5143C19.1724 16.6187 19.948 16.7617 20.6761 17.0476C21.2405 17.2719 21.779 17.6045 22.1616 18.0856C22.5236 18.5279 22.7301 19.0838 22.8033 19.652C22.8895 20.3079 22.8528 20.9867 22.6416 21.6213C22.4775 22.1304 22.2018 22.6031 21.8466 23.0013C21.1111 23.8322 20.0404 24.3228 18.9464 24.4384C18.9726 25.1285 19.0058 25.8152 19.0355 26.5054C18.1322 26.4939 17.2325 26.4824 16.3327 26.4709C16.3765 25.7886 16.4307 25.1065 16.4709 24.4242C15.7465 24.3904 15.0309 24.2202 14.3585 23.956C13.707 23.699 13.088 23.362 12.5117 22.9694C12.9529 21.8756 13.3941 20.7817 13.8388 19.6844C14.3202 20.1002 14.8335 20.4885 15.397 20.7863C16.0021 21.1057 16.6753 21.3139 17.3614 21.3297C17.687 21.3373 18.0233 21.3241 18.3328 21.216C18.5227 21.1484 18.7099 21.0283 18.7964 20.8368C18.8865 20.6349 18.8827 20.3792 18.752 20.1954C18.6591 20.0717 18.5271 19.986 18.3878 19.9247C18.1998 19.8452 18.0042 19.8007 17.8051 19.7666C17.0714 19.6382 16.3339 19.5307 15.6262 19.2906C15.0579 19.0977 14.5045 18.8315 14.0545 18.4266C13.7706 18.1743 13.5364 17.8667 13.3728 17.5215C13.1272 17.0071 13.0401 16.4282 13.0543 15.8611C13.0624 15.2275 13.2002 14.5849 13.5224 14.0323C13.8019 13.5386 14.2237 13.1378 14.6968 12.8323C15.2688 12.4649 15.9057 12.2174 16.5525 12.0191C16.5332 11.3396 16.5139 10.66 16.4946 9.98044Z" fill="#4090B5"/>
</svg>
