<svg width="78" height="79" viewBox="0 0 78 79" fill="none" xmlns="http://www.w3.org/2000/svg">
<rect y="0.5" width="78" height="78" rx="39" fill="url(#paint0_linear_0_1972)" fill-opacity="0.05"/>
<rect x="12" y="12.5" width="54" height="54" rx="27" fill="url(#paint1_linear_0_1972)" fill-opacity="0.05"/>
<path d="M38.0625 30.1661C36.1682 28.9535 33.9156 28.25 31.5 28.25C30.0772 28.25 28.7094 28.4942 27.4376 28.9437C27.063 29.0761 26.8125 29.4303 26.8125 29.8276V47.6401C26.8125 47.9445 26.9602 48.2299 27.2087 48.4056C27.4572 48.5813 27.7755 48.6255 28.0624 48.5241C29.1364 48.1445 30.293 47.9375 31.5 47.9375C33.9938 47.9375 36.2791 48.8216 38.0625 50.2946V30.1661Z" fill="#4090B5"/>
<path d="M39.9375 50.2946C41.7209 48.8216 44.0062 47.9375 46.5 47.9375C47.707 47.9375 48.8636 48.1445 49.9376 48.5241C50.2245 48.6255 50.5428 48.5813 50.7913 48.4056C51.0398 48.2299 51.1875 47.9445 51.1875 47.6401V29.8276C51.1875 29.4303 50.937 29.0761 50.5624 28.9437C49.2906 28.4942 47.9228 28.25 46.5 28.25C44.0844 28.25 41.8318 28.9535 39.9375 30.1661V50.2946Z" fill="#4090B5"/>
<defs>
<linearGradient id="paint0_linear_0_1972" x1="39" y1="0.5" x2="39" y2="78.5" gradientUnits="userSpaceOnUse">
<stop stop-color="#4090B5"/>
<stop offset="1" stop-color="#4090B5" stop-opacity="0"/>
</linearGradient>
<linearGradient id="paint1_linear_0_1972" x1="39" y1="12.5" x2="39" y2="66.5" gradientUnits="userSpaceOnUse">
<stop stop-color="#4090B5"/>
<stop offset="1" stop-color="#4090B5" stop-opacity="0"/>
</linearGradient>
</defs>
</svg>
