<svg width="35" height="36" viewBox="0 0 35 36" fill="none" xmlns="http://www.w3.org/2000/svg">
<path d="M34.7727 18.0007C34.7727 27.5273 27.05 35.2502 17.5235 35.2502C7.99692 35.2502 0.27417 27.5273 0.27417 18.0007C0.27417 8.47422 7.99692 0.751465 17.5235 0.751465C27.0499 0.751465 34.7727 8.47422 34.7727 18.0007Z" fill="#262626"/>
<path d="M22.3709 25.2079L21.9729 23.4005C21.9503 23.2942 21.8935 23.2146 21.8023 23.1618C21.7038 23.1086 21.6053 23.1013 21.5069 23.1392L21.4499 23.1618L21.3134 23.1958C21.2526 23.2108 21.1826 23.228 21.103 23.2469C21.0234 23.2659 20.9308 23.2847 20.8245 23.3038C20.7188 23.3227 20.6064 23.3399 20.4893 23.355C20.3718 23.3698 20.2451 23.3833 20.1086 23.3948C19.972 23.406 19.8357 23.4117 19.6992 23.4117C18.7366 23.4117 17.8707 23.1522 17.1015 22.6331C16.3322 22.1137 15.7657 21.4108 15.402 20.5243H19.8013C19.8848 20.5243 19.9606 20.4959 20.0286 20.4389C20.097 20.3822 20.1387 20.3122 20.1536 20.2285L20.4264 18.9553C20.4492 18.8419 20.4264 18.7395 20.3584 18.6484C20.2826 18.5574 20.1876 18.5119 20.0741 18.5119H14.8564C14.8336 17.9965 14.8336 17.5987 14.8564 17.3182H20.404C20.6088 17.3182 20.73 17.2198 20.7678 17.0227L21.0407 15.7267C21.0632 15.6206 21.0371 15.5222 20.9611 15.4312C20.8931 15.3402 20.7984 15.2946 20.6771 15.2946H15.3566C15.7356 14.4458 16.3039 13.7789 17.0619 13.2938C17.8198 12.8086 18.6762 12.5662 19.6311 12.5662C19.6615 12.551 19.7732 12.5549 19.9663 12.5775C20.1596 12.6002 20.2697 12.6097 20.2961 12.6059C20.3222 12.6022 20.4212 12.6136 20.5915 12.6399C20.7621 12.6665 20.8474 12.6798 20.8474 12.6798L21.0464 12.7195C21.1033 12.731 21.1469 12.7403 21.1772 12.748L21.2227 12.7593C21.3211 12.7897 21.4118 12.7802 21.4955 12.731C21.5789 12.6816 21.632 12.6078 21.6548 12.5093L22.1437 10.7017C22.1663 10.6032 22.1548 10.5122 22.1097 10.4289C22.0414 10.3378 21.9655 10.281 21.8821 10.2583C21.1849 10.084 20.4495 9.99683 19.6766 9.99683C17.9787 9.99683 16.4613 10.482 15.1236 11.452C13.7859 12.422 12.8631 13.703 12.3553 15.2944H11.2413C11.1351 15.2944 11.0481 15.3285 10.9798 15.3967C10.9118 15.4648 10.8776 15.552 10.8776 15.6582V16.9542C10.8776 17.0603 10.9116 17.1475 10.9798 17.2155C11.0481 17.2838 11.1353 17.3178 11.2413 17.3178H12.003C11.9801 17.6817 11.9765 18.0793 11.9916 18.5115H11.2413C11.1428 18.5115 11.0575 18.5475 10.9855 18.6195C10.9136 18.6914 10.8776 18.7767 10.8776 18.8751V20.1598C10.8776 20.2585 10.9136 20.3435 10.9855 20.4157C11.0576 20.4877 11.1428 20.5234 11.2413 20.5234H12.3213C12.7988 22.1983 13.7007 23.5304 15.027 24.5194C16.3534 25.5087 17.9033 26.003 19.6766 26.003C19.8208 26.003 19.9666 25.9995 20.1144 25.9916C20.2625 25.984 20.4006 25.9725 20.5295 25.9576C20.6582 25.9426 20.7853 25.9257 20.9103 25.9066C21.0353 25.8875 21.149 25.8689 21.2513 25.8496C21.3536 25.8308 21.4502 25.8119 21.5411 25.7931C21.6321 25.7739 21.7136 25.7533 21.7857 25.7304C21.8576 25.708 21.918 25.6908 21.9675 25.6796C22.0168 25.6682 22.0566 25.6547 22.0867 25.6398L22.1437 25.6284C22.2271 25.5981 22.2915 25.5431 22.3369 25.4634C22.3824 25.3842 22.3936 25.2988 22.3709 25.2079Z" fill="#4090B5"/>
</svg>
