<svg width="78" height="79" viewBox="0 0 78 79" fill="none" xmlns="http://www.w3.org/2000/svg">
<rect y="0.5" width="78" height="78" rx="39" fill="url(#paint0_linear_0_1942)" fill-opacity="0.05"/>
<rect x="12" y="12.5" width="54" height="54" rx="27" fill="url(#paint1_linear_0_1942)" fill-opacity="0.05"/>
<g clip-path="url(#clip0_0_1942)">
<path d="M41.692 31.3782C41.725 31.4166 41.7305 31.4276 41.736 31.4276C42.2804 31.5046 42.5333 31.9115 42.8248 32.3184C43.1602 32.7804 43.5616 33.2038 43.9905 33.5887C45.1178 34.606 45.8106 35.8377 46.0416 37.3389C46.443 39.9673 44.9363 42.6672 42.4619 43.7175C38.7062 45.3122 34.5106 42.8872 34.0762 38.8291C33.8452 36.668 34.637 34.8809 36.2867 33.4732C36.8201 33.0168 37.2655 32.4889 37.6339 31.8895C37.6999 31.7796 37.8209 31.6916 37.9363 31.6366C38.1233 31.5486 38.3322 31.4991 38.5687 31.4166C38.4917 31.3232 38.4367 31.2572 38.3762 31.1912C38.0078 30.8118 37.6394 30.4214 37.2655 30.0529C37.1335 29.921 37.073 29.7835 37.0785 29.5965C37.0895 28.8157 37.084 28.0404 37.084 27.2595C37.084 26.9461 37.4689 26.4457 37.7824 26.3852C38.1398 26.3137 38.5082 26.2752 38.8656 26.2038C38.9701 26.1818 39.0856 26.1158 39.1461 26.0333C39.6685 25.3294 40.5868 25.3239 41.1037 26.0223C41.1751 26.1158 41.3126 26.1873 41.4281 26.2148C41.758 26.2862 42.0934 26.3247 42.4289 26.3852C42.7643 26.4512 43.1217 26.8856 43.1217 27.2265C43.1217 28.0129 43.1162 28.8047 43.1272 29.591C43.1327 29.7945 43.0667 29.932 42.9293 30.0749C42.5113 30.4983 42.1099 30.9327 41.692 31.3782ZM39.3825 34.441C39.366 34.507 39.3495 34.5455 39.355 34.5785C39.4265 34.9469 39.256 35.1064 38.9151 35.2438C38.2663 35.5133 37.9748 36.0576 37.9913 36.756C38.0078 37.4488 38.3817 37.8778 39.0086 38.1032C39.2835 38.2022 39.5695 38.2737 39.8444 38.3672C40.0974 38.4496 40.3503 38.5321 40.5923 38.6311C40.7957 38.7136 40.9112 38.873 40.8892 39.104C40.8672 39.3404 40.7187 39.4779 40.5098 39.5164C40.2953 39.5604 40.0644 39.5989 39.8609 39.5494C39.465 39.4559 39.0856 39.2965 38.6677 39.1535C38.4807 39.4009 38.2663 39.6814 38.0078 40.0278C38.3982 40.1983 38.7337 40.3742 39.0911 40.4952C39.2945 40.5612 39.377 40.6492 39.3495 40.8581C39.333 41.0066 39.344 41.1606 39.344 41.331C39.6575 41.331 39.9214 41.331 40.1853 41.331C40.5648 41.331 40.5813 41.331 40.5593 40.9406C40.5483 40.6987 40.6033 40.5667 40.8672 40.5337C41.0047 40.5172 41.1421 40.4402 41.2686 40.3687C41.8515 40.0498 42.0934 39.5384 42.0824 38.8895C42.0714 38.2737 41.7635 37.8503 41.2136 37.6028C40.9662 37.4928 40.7022 37.4104 40.4383 37.3224C40.1084 37.2124 39.7784 37.1134 39.4485 36.9924C39.245 36.9155 39.1626 36.7505 39.1791 36.5305C39.1956 36.3216 39.322 36.1786 39.5145 36.1456C39.7454 36.1071 39.9929 36.0851 40.2183 36.1236C40.4933 36.1731 40.7517 36.2996 41.0432 36.3986C41.2246 36.1181 41.4116 35.8212 41.6315 35.4748C41.3786 35.3593 41.1641 35.2163 40.9332 35.1778C40.6088 35.1228 40.5098 34.9744 40.5483 34.6664C40.5593 34.595 40.4603 34.452 40.3998 34.4465C40.0699 34.43 39.7234 34.441 39.3825 34.441Z" fill="#4090B5"/>
<path d="M39.6795 53.489C38.5082 53.489 37.3315 53.456 36.1602 53.5C35.3739 53.5275 34.703 53.291 34.0707 52.8731C33.1744 52.2738 32.355 51.5919 31.6402 50.7781C30.5844 49.5738 29.5176 48.3696 28.4619 47.1654C27.5985 46.1756 27.989 44.7129 29.2207 44.3115C29.3637 44.262 29.5286 44.2455 29.6771 44.2455C30.6559 44.24 31.6402 44.2345 32.619 44.251C32.7564 44.251 32.9214 44.3225 33.0204 44.416C33.6912 45.0648 34.3511 45.7302 35.0055 46.3955C35.1374 46.5275 35.2584 46.555 35.4454 46.5275C35.8413 46.467 36.2482 46.412 36.6496 46.412C38.5027 46.401 40.3503 46.4065 42.2034 46.4065C42.8358 46.4065 43.3032 46.731 43.4681 47.2698C43.7211 48.0837 43.1272 48.848 42.2199 48.8535C40.9937 48.859 39.7619 48.8535 38.5357 48.8535C38.3158 48.8535 38.0958 48.848 37.8758 48.8535C37.4799 48.8645 37.2215 49.1174 37.216 49.4749C37.216 49.8378 37.4744 50.1127 37.8648 50.1127C39.8169 50.1182 41.769 50.1182 43.7211 50.1127C44.117 50.1127 44.4029 49.8928 44.6779 49.6288C45.9536 48.4026 47.2293 47.1764 48.5106 45.9556C49.033 45.4552 49.7258 45.4332 50.2207 45.8786C50.7541 46.3625 50.7651 47.1434 50.2262 47.6878C49.6598 48.2651 49.0824 48.8095 48.5106 49.3649C47.2458 50.5911 45.9811 51.8119 44.7219 53.0381C44.4139 53.335 44.073 53.489 43.6386 53.489C42.3189 53.4835 40.9992 53.489 39.6795 53.489Z" fill="#4090B5"/>
<path d="M33.1359 30.251C33.6693 30.7844 34.2027 31.3177 34.725 31.8401C34.4006 32.1646 34.0597 32.5055 33.7188 32.8409C33.2129 32.3185 32.6795 31.7687 32.1681 31.2408C32.4705 30.9328 32.8115 30.5809 33.1359 30.251Z" fill="#4090B5"/>
<path d="M47.0204 30.251C47.3448 30.5754 47.6803 30.9218 47.9937 31.2353C47.4713 31.7577 46.9269 32.302 46.399 32.8244C46.0801 32.5055 45.7447 32.1591 45.4092 31.8236C45.9316 31.3122 46.4705 30.7844 47.0204 30.251Z" fill="#4090B5"/>
<path d="M48.2851 38.9171C48.2851 38.4497 48.2796 38.0208 48.2906 37.5919C48.2906 37.5369 48.3951 37.4379 48.4501 37.4379C49.1209 37.4269 49.7863 37.4269 50.4572 37.4379C50.5122 37.4379 50.6166 37.5204 50.6166 37.5644C50.6276 38.0098 50.6221 38.4552 50.6221 38.9171C49.8358 38.9171 49.077 38.9171 48.2851 38.9171Z" fill="#4090B5"/>
<path d="M31.8547 38.9336C31.0958 38.9336 30.3865 38.9391 29.6716 38.9281C29.6166 38.9281 29.5287 38.8236 29.5232 38.7632C29.5122 38.3782 29.5067 37.9933 29.5232 37.6084C29.5232 37.5479 29.6331 37.4379 29.6936 37.4379C30.3535 37.4269 31.0133 37.4269 31.6732 37.4379C31.7337 37.4379 31.8437 37.5259 31.8437 37.5809C31.8602 38.0098 31.8547 38.4497 31.8547 38.9336Z" fill="#4090B5"/>
</g>
<defs>
<linearGradient id="paint0_linear_0_1942" x1="39" y1="0.5" x2="39" y2="78.5" gradientUnits="userSpaceOnUse">
<stop stop-color="#4090B5"/>
<stop offset="1" stop-color="#4090B5" stop-opacity="0"/>
</linearGradient>
<linearGradient id="paint1_linear_0_1942" x1="39" y1="12.5" x2="39" y2="66.5" gradientUnits="userSpaceOnUse">
<stop stop-color="#4090B5"/>
<stop offset="1" stop-color="#4090B5" stop-opacity="0"/>
</linearGradient>
<clipPath id="clip0_0_1942">
<rect width="22.6277" height="28" fill="white" transform="translate(28 25.5)"/>
</clipPath>
</defs>
</svg>
