<svg width="78" height="79" viewBox="0 0 78 79" fill="none" xmlns="http://www.w3.org/2000/svg">
<rect y="0.5" width="78" height="78" rx="39" fill="url(#paint0_linear_0_1966)" fill-opacity="0.05"/>
<rect x="12" y="12.5" width="54" height="54" rx="27" fill="url(#paint1_linear_0_1966)" fill-opacity="0.05"/>
<path d="M38.4801 27.47C38.795 27.26 39.2052 27.26 39.5201 27.47L50.7701 34.97C51.2009 35.2572 51.3174 35.8392 51.0301 36.27C50.7429 36.7008 50.1609 36.8173 49.7301 36.53L39.0001 29.3767L28.2701 36.53C27.8393 36.8173 27.2573 36.7008 26.9701 36.27C26.6828 35.8392 26.7993 35.2572 27.2301 34.97L38.4801 27.47Z" fill="#4090B5"/>
<path fill-rule="evenodd" clip-rule="evenodd" d="M49.3125 37.4156V49.8125H50.25C50.7678 49.8125 51.1875 50.2322 51.1875 50.75C51.1875 51.2678 50.7678 51.6875 50.25 51.6875H27.75C27.2322 51.6875 26.8125 51.2678 26.8125 50.75C26.8125 50.2322 27.2322 49.8125 27.75 49.8125H28.6875V37.4156C28.6875 36.954 29.0236 36.561 29.4797 36.4895C32.5822 36.0026 35.7619 35.75 39 35.75C42.2381 35.75 45.4178 36.0026 48.5203 36.4895C48.9764 36.561 49.3125 36.954 49.3125 37.4156ZM39.9375 40.4375C39.9375 39.9197 39.5178 39.5 39 39.5C38.4822 39.5 38.0625 39.9197 38.0625 40.4375V48.875C38.0625 49.3928 38.4822 49.8125 39 49.8125C39.5178 49.8125 39.9375 49.3928 39.9375 48.875V40.4375ZM43.6875 39.5C44.2053 39.5 44.625 39.9197 44.625 40.4375V48.875C44.625 49.3928 44.2053 49.8125 43.6875 49.8125C43.1697 49.8125 42.75 49.3928 42.75 48.875V40.4375C42.75 39.9197 43.1697 39.5 43.6875 39.5ZM35.25 40.4375C35.25 39.9197 34.8303 39.5 34.3125 39.5C33.7947 39.5 33.375 39.9197 33.375 40.4375V48.875C33.375 49.3928 33.7947 49.8125 34.3125 49.8125C34.8303 49.8125 35.25 49.3928 35.25 48.875V40.4375Z" fill="#4090B5"/>
<path d="M39 34.3438C39.7767 34.3438 40.4062 33.7142 40.4062 32.9375C40.4062 32.1608 39.7767 31.5312 39 31.5312C38.2233 31.5312 37.5938 32.1608 37.5938 32.9375C37.5938 33.7142 38.2233 34.3438 39 34.3438Z" fill="#4090B5"/>
<defs>
<linearGradient id="paint0_linear_0_1966" x1="39" y1="0.5" x2="39" y2="78.5" gradientUnits="userSpaceOnUse">
<stop stop-color="#4090B5"/>
<stop offset="1" stop-color="#4090B5" stop-opacity="0"/>
</linearGradient>
<linearGradient id="paint1_linear_0_1966" x1="39" y1="12.5" x2="39" y2="66.5" gradientUnits="userSpaceOnUse">
<stop stop-color="#4090B5"/>
<stop offset="1" stop-color="#4090B5" stop-opacity="0"/>
</linearGradient>
</defs>
</svg>
