<svg width="36" height="36" viewBox="0 0 36 36" fill="none" xmlns="http://www.w3.org/2000/svg">
<path d="M35.0082 18.0007C35.0082 27.5273 27.2856 35.2502 17.7591 35.2502C8.23245 35.2502 0.509705 27.5273 0.509705 18.0007C0.509705 8.47422 8.23245 0.751465 17.7591 0.751465C27.2855 0.751465 35.0082 8.47422 35.0082 18.0007Z" fill="#262626"/>
<g opacity="0.8">
<path d="M17.7037 9.99683L17.5972 10.359V20.8672L17.7037 20.9735L22.5815 18.0903L17.7037 9.99683Z" fill="#4090B5"/>
<path d="M17.7038 9.99683L12.826 18.0903L17.7038 20.9736V15.8732V9.99683Z" fill="#4090B5"/>
<path d="M17.7038 22.5605L17.6437 22.6337V26.377L17.7038 26.5523L22.5845 19.6787L17.7038 22.5605Z" fill="#4090B5"/>
<path d="M17.7037 26.5523V22.5605L12.8259 19.6787L17.7037 26.5523Z" fill="#4090B5"/>
<path d="M17.7039 20.9736L22.5816 18.0904L17.7039 15.8733V20.9736Z" fill="#4090B5"/>
<path d="M12.8259 18.0904L17.7036 20.9736V15.8733L12.8259 18.0904Z" fill="#4090B5"/>
</g>
</svg>
