<svg width="101" height="88" viewBox="0 0 101 88" fill="none" xmlns="http://www.w3.org/2000/svg">
<g clip-path="url(#clip0_39_145)">
<path d="M27.051 44.2967C27.051 57.558 37.4862 68.1358 50.5613 68.1307C63.493 68.1257 73.8589 57.4081 73.85 44.0523C73.8411 31.1652 63.2308 20.515 50.4278 20.5392C37.4882 20.5643 27.051 31.1723 27.051 44.2967ZM34.9699 44.3822C34.9699 35.6933 41.8677 28.6236 50.3951 28.5733C58.8691 28.5241 65.9093 35.648 65.9242 44.2877C65.939 52.9525 58.9879 60.0724 50.4871 60.0976C41.9864 60.1237 34.9709 53.0179 34.9709 44.3822H34.9699Z" fill="#4492B7"/>
<path d="M88.9507 29.8648C87.7751 24.8138 85.156 20.5111 81.9886 16.5684C74.7277 7.53145 65.3176 2.06301 53.9246 1.02203C35.1015 -0.697861 20.8341 7.17842 11.0411 23.5214C10.5305 24.3743 10.1159 24.5452 9.21544 24.2536C6.5547 23.3926 3.86328 22.6272 1.18374 21.8246C0.988807 21.7663 0.799814 21.6094 0.499008 21.8397C1.54787 23.808 2.60069 25.7924 3.66241 27.7718C5.57906 31.3443 7.50659 34.9088 9.41235 38.4874C9.66764 38.9671 9.85465 39.1975 10.4385 38.8706C15.8342 35.8492 21.2477 32.859 26.6533 29.8568C26.7403 29.8085 26.8056 29.721 26.9966 29.548C24.8989 28.9174 22.8932 28.3139 20.8875 27.7115C20.0058 27.4469 19.1351 27.1301 18.2396 26.934C17.3698 26.7429 17.3708 26.3798 17.7399 25.6657C21.1062 19.1623 25.8676 13.9976 32.0697 10.232C39.0288 6.00668 46.6044 4.23148 54.6549 4.83495C63.5959 5.5048 71.4485 8.94256 78.1414 15.0326C83.0008 19.454 86.5511 24.7997 88.8923 30.9822C89.0783 30.9682 89.2643 30.9531 89.4503 30.939C89.3534 30.7348 89.2574 30.5307 89.1604 30.3265C89.0486 30.1917 88.6934 30.1716 88.9477 29.8638L88.9507 29.8648Z" fill="#4492B7"/>
<path d="M11.9583 59.4951C13.3802 63.8391 15.5452 67.7808 18.3128 71.3724C24.9503 79.9839 33.5945 85.3759 44.1613 87.2648C57.2849 89.6103 69.0896 86.3163 79.4565 77.8185C83.8083 74.252 87.2933 69.914 89.9708 64.9244C90.334 64.2485 90.706 64.1328 91.4135 64.3541C94.3464 65.2713 97.298 66.1243 100.5 67.0777C99.8519 65.8446 99.3215 64.8177 98.7753 63.7989C96.3491 59.2779 93.911 54.7629 91.4996 50.2339C91.2196 49.7079 91.0236 49.4655 90.3963 49.8165C85.0629 52.8047 79.7108 55.7597 74.3655 58.7277C74.225 58.8062 74.1023 58.9168 73.8391 59.1089C76.7651 59.985 79.5337 60.8137 82.3013 61.6445C83.6054 62.0368 83.6321 62.0549 83.0038 63.2145C76.8046 74.6603 67.3837 81.5902 54.6608 83.4669C41.8004 85.3638 30.6736 81.3659 21.3238 72.2746C18.2347 69.2703 15.7421 65.7652 13.8205 61.8617C13.3832 60.9726 12.9241 60.0946 12.4748 59.2115C12.273 59.2517 12.0701 59.289 11.9583 59.4962V59.4951Z" fill="#4392B7"/>
<path d="M11.9583 59.4951C12.0701 59.2869 12.273 59.2497 12.4748 59.2105C12.4778 59.1602 12.463 59.1159 12.4293 59.0777C12.2957 59.0144 12.2017 58.946 12.3957 58.8353C11.6842 56.5784 10.9728 54.3214 10.2603 52.0644C10.4701 54.6352 10.9599 57.1285 11.9583 59.4951Z" fill="#4392B7"/>
<path d="M89.4523 30.94C89.2663 30.9541 89.0803 30.9692 88.8942 30.9832C89.6413 33.3197 90.3419 35.6682 90.9079 38.0649C90.7327 35.6279 90.3933 33.2251 89.4533 30.94H89.4523Z" fill="#4090B5"/>
<path d="M88.5351 28.7906C88.7557 30.6855 89.1614 30.6976 89.4929 31.46C89.2653 29.6395 88.9012 29.202 88.5351 28.7906Z" fill="#4090B5"/>
<path d="M12.3947 58.8363C12.2007 58.946 12.2947 59.0154 12.4283 59.0787C12.4174 58.9983 12.4056 58.9178 12.3947 58.8363Z" fill="#4392B7"/>
<path d="M50.025 40.6639C50.025 41.6345 50.315 42.7459 49.9449 43.5384C49.558 44.3682 48.2825 44.2254 47.4256 44.6005C44.4611 45.899 43.1184 48.2455 43.6735 51.2829C44.099 53.6133 45.8474 55.3191 48.518 55.7758C49.6025 55.9608 50.2922 56.1781 50.0775 57.5077C49.9578 58.249 50.6039 58.1021 51.0383 58.1212C51.5231 58.1434 52.0476 58.1313 51.9348 57.4252C51.7507 56.2686 52.2662 55.9196 53.3349 55.7426C55.0556 55.4569 56.4656 54.4682 57.7114 53.2422C58.0182 52.9395 58.1458 52.683 57.748 52.3712C57.6649 52.3058 57.6036 52.2133 57.5303 52.1348C57.0148 51.5907 56.5854 50.7831 55.96 50.5708C55.1763 50.3043 54.9666 51.4921 54.3254 51.812C54.2324 51.8582 54.1611 51.9498 54.0711 52.0061C53.4665 52.3802 52.756 52.9364 52.1416 52.6337C51.6557 52.3943 51.9724 51.5173 51.9575 50.9269C51.9268 49.7039 51.6369 48.3521 52.0486 47.291C52.4721 46.2007 54.0305 46.3566 55.0467 45.8497C57.9568 44.3963 59.1917 42.1806 58.7049 39.0416C58.2843 36.327 56.2331 34.4411 53.0588 34.069C52.1257 33.9593 51.7972 33.6898 51.9407 32.7816C51.9793 32.5362 51.9268 32.2767 51.9506 32.0272C52.0159 31.3292 51.9288 30.9259 51.0274 30.9098C50.0597 30.8927 49.9835 31.3514 50.0547 32.0806C50.0646 32.1872 50.0399 32.2998 50.0587 32.4044C50.2714 33.5842 49.8143 34.0539 48.62 34.2651C46.8013 34.587 45.2824 35.6068 44.0653 37.0451C43.9733 37.1537 43.8259 37.2573 43.8051 37.38C43.5815 38.7278 44.9747 38.9239 45.4803 39.7647C45.7821 40.2656 46.1067 39.9769 46.4035 39.647C47.1931 38.768 48.0144 37.9312 49.1731 37.5349C49.8103 37.3177 50.0993 37.4414 50.0656 38.1826C50.027 39.0084 50.0567 39.8381 50.0567 40.6659C50.0468 40.6659 50.0369 40.6659 50.026 40.6659L50.025 40.6639ZM55.1833 39.984C55.1803 41.5701 54.1482 42.767 52.5839 43.0365C52.1139 43.118 51.9407 42.9651 51.9437 42.4874C51.9565 40.9455 51.9545 39.4026 51.9437 37.8608C51.9407 37.4263 52.0456 37.2161 52.5423 37.2372C54.1591 37.3046 55.1872 38.3496 55.1842 39.984H55.1833ZM50.0547 50.2289C50.0547 50.9128 50.0616 51.5977 50.0518 52.2817C50.0478 52.5542 50.1131 52.8419 49.6619 52.8861C48.0263 53.0471 46.5955 51.4328 46.9566 49.7974C47.1941 48.7232 48.4824 47.6983 49.6184 47.634C50.0706 47.6078 50.0518 47.8824 50.0527 48.1761C50.0557 48.86 50.0537 49.5449 50.0547 50.2289Z" fill="#4492B7"/>
</g>
<defs>
<clipPath id="clip0_39_145">
<rect width="100" height="87.2093" fill="white" transform="matrix(1 0 0 -1 0.5 88)"/>
</clipPath>
</defs>
</svg>
