<svg width="11" height="15" viewBox="0 0 11 15" fill="none" xmlns="http://www.w3.org/2000/svg">
<path fill-rule="evenodd" clip-rule="evenodd" d="M9.84712 4.67467C9.6953 3.0993 8.33532 2.57114 6.61829 2.42072L6.61824 0.235407L5.28771 0.235636L5.28779 2.36335C4.93846 2.3633 4.58102 2.37021 4.22589 2.3773L4.22608 0.235499L2.89662 0.235461L2.89613 2.42014C2.60814 2.42603 2.32532 2.43137 2.04955 2.43156L2.04938 2.42478L0.214734 2.42415L0.215084 3.84483C0.215084 3.84483 1.19737 3.8261 1.18104 3.84419C1.71983 3.84435 1.89555 4.15706 1.9462 4.42707L1.94632 6.91659C1.9835 6.91679 2.032 6.91834 2.08692 6.92586L1.94676 6.92595L1.94607 10.4136C1.92242 10.5832 1.82275 10.8535 1.44632 10.8542C1.46334 10.8693 0.479378 10.8539 0.479378 10.8539L0.215173 12.4429L1.94657 12.4427C2.14208 12.4429 2.33568 12.4451 2.52716 12.4471C2.65117 12.4485 2.7743 12.4498 2.89647 12.4506L2.89712 14.6612L4.22587 14.6614L4.22619 12.4745C4.59067 12.4821 4.94374 12.485 5.28843 12.4847L5.28786 14.6614L6.61803 14.6613L6.61845 12.455C8.85475 12.3267 10.4203 11.7632 10.614 9.66374C10.771 7.97274 9.97586 7.21812 8.70633 6.91293C9.47737 6.51951 9.95954 5.82758 9.84677 4.67476L9.84712 4.67467ZM7.98569 9.40064C7.98604 10.9167 5.60411 10.8832 4.51524 10.868C4.41773 10.8666 4.33059 10.8654 4.25646 10.8654L4.25679 7.93704C4.34742 7.93707 4.45749 7.93447 4.58217 7.93152C5.69815 7.90518 7.98518 7.85118 7.98605 9.40056L7.98569 9.40064ZM4.47559 6.59934C5.38468 6.61422 7.36626 6.64665 7.36664 5.2693C7.36681 3.86027 5.46041 3.91092 4.52936 3.93565C4.42469 3.93843 4.33235 3.94088 4.25642 3.9409L4.25635 6.59679C4.31901 6.59678 4.39286 6.59799 4.47559 6.59934Z" fill="#4090B5"/>
</svg>
