<svg width="39" height="39" viewBox="0 0 39 39" fill="none" xmlns="http://www.w3.org/2000/svg">
<rect x="0.81134" y="0.788086" width="38.1496" height="38.1496" rx="19.0748" fill="#9E30A9"/>
<path fill-rule="evenodd" clip-rule="evenodd" d="M23.2159 11.7887C22.9227 12.1045 22.941 12.5982 23.2568 12.8915L25.4421 14.9207L16.5046 14.9208C16.0737 14.9208 15.7243 15.2701 15.7243 15.7011C15.7243 16.132 16.0737 16.4814 16.5046 16.4814L25.4421 16.4814L23.2568 18.5107C22.941 18.804 22.9227 19.2977 23.2159 19.6135C23.5092 19.9293 24.0029 19.9476 24.3187 19.6543L27.9603 16.2729C28.1193 16.1253 28.2096 15.9181 28.2096 15.7011C28.2096 15.4841 28.1193 15.2769 27.9603 15.1293L24.3187 11.7478C24.0029 11.4546 23.5092 11.4729 23.2159 11.7887ZM16.5562 20.1122C16.263 19.7964 15.7692 19.7781 15.4534 20.0714L11.8119 23.4528C11.6529 23.6005 11.5625 23.8076 11.5625 24.0246C11.5625 24.2416 11.6529 24.4488 11.8119 24.5964L15.4534 27.9779C15.7692 28.2711 16.263 28.2529 16.5562 27.937C16.8495 27.6212 16.8312 27.1275 16.5154 26.8342L14.33 24.805H23.2675C23.6985 24.805 24.0478 24.4556 24.0478 24.0246C24.0478 23.5937 23.6985 23.2443 23.2675 23.2443H14.33L16.5154 21.215C16.8312 20.9218 16.8495 20.428 16.5562 20.1122Z" fill="#1C1C1C"/>
</svg>
