<svg width="39" height="39" viewBox="0 0 39 39" fill="none" xmlns="http://www.w3.org/2000/svg">
<rect x="0.152435" y="0.256592" width="38.1496" height="38.1496" rx="19.0748" fill="#9E30A9"/>
<path fill-rule="evenodd" clip-rule="evenodd" d="M22.5568 11.2572C22.2636 11.573 22.2818 12.0667 22.5977 12.36L24.783 14.3893L15.8455 14.3893C15.4146 14.3893 15.0652 14.7386 15.0652 15.1696C15.0652 15.6006 15.4146 15.9499 15.8455 15.9499L24.783 15.9499L22.5977 17.9792C22.2818 18.2725 22.2636 18.7662 22.5568 19.082C22.8501 19.3978 23.3438 19.4161 23.6596 19.1229L27.3012 15.7414C27.4602 15.5938 27.5505 15.3866 27.5505 15.1696C27.5505 14.9526 27.4602 14.7454 27.3012 14.5978L23.6596 11.2163C23.3438 10.9231 22.8501 10.9414 22.5568 11.2572ZM15.8971 19.5807C15.6039 19.2649 15.1101 19.2466 14.7943 19.5399L11.1528 22.9213C10.9938 23.069 10.9034 23.2761 10.9034 23.4931C10.9034 23.7101 10.9938 23.9173 11.1528 24.065L14.7943 27.4464C15.1101 27.7396 15.6039 27.7214 15.8971 27.4056C16.1904 27.0897 16.1721 26.596 15.8563 26.3028L13.6709 24.2735H22.6084C23.0394 24.2735 23.3887 23.9241 23.3887 23.4931C23.3887 23.0622 23.0394 22.7128 22.6084 22.7128H13.6709L15.8563 20.6835C16.1721 20.3903 16.1904 19.8965 15.8971 19.5807Z" fill="#1C1C1C"/>
</svg>
