<svg width="1063" height="34" viewBox="0 0 1063 34" fill="none" xmlns="http://www.w3.org/2000/svg">
<g filter="url(#filter0_d_3_2)">
<path fill-rule="evenodd" clip-rule="evenodd" d="M6.22729 0.545454V18H4.11365V0.545454H6.22729ZM12.2039 10.125V18H10.1924V4.90909H12.1357V6.95455H12.3061C12.6129 6.28977 13.0789 5.75568 13.7039 5.35227C14.3289 4.94318 15.1357 4.73864 16.1243 4.73864C17.0107 4.73864 17.7862 4.92045 18.451 5.28409C19.1158 5.64205 19.6328 6.1875 20.0021 6.92045C20.3715 7.64773 20.5561 8.56818 20.5561 9.68182V18H18.5447V9.81818C18.5447 8.78977 18.2777 7.98864 17.7436 7.41477C17.2095 6.83523 16.4766 6.54545 15.5447 6.54545C14.9027 6.54545 14.3289 6.68466 13.8232 6.96307C13.3232 7.24148 12.9283 7.64773 12.6385 8.18182C12.3487 8.71591 12.2039 9.36364 12.2039 10.125ZM24.2315 18V4.90909H26.2429V18H24.2315ZM25.2543 2.72727C24.8622 2.72727 24.5242 2.59375 24.2401 2.3267C23.9617 2.05966 23.8224 1.73864 23.8224 1.36364C23.8224 0.988636 23.9617 0.667614 24.2401 0.400568C24.5242 0.133523 24.8622 0 25.2543 0C25.6463 0 25.9815 0.133523 26.2599 0.400568C26.544 0.667614 26.6861 0.988636 26.6861 1.36364C26.6861 1.73864 26.544 2.05966 26.2599 2.3267C25.9815 2.59375 25.6463 2.72727 25.2543 2.72727ZM35.2451 18.2727C34.0178 18.2727 32.9609 17.983 32.0746 17.4034C31.1882 16.8239 30.5064 16.0256 30.0291 15.0085C29.5518 13.9915 29.3132 12.8295 29.3132 11.5227C29.3132 10.1932 29.5576 9.01989 30.0461 8.00284C30.5405 6.98011 31.228 6.18182 32.1086 5.60795C32.9951 5.02841 34.0291 4.73864 35.2109 4.73864C36.1314 4.73864 36.9609 4.90909 37.6996 5.25C38.4382 5.59091 39.0433 6.06818 39.5149 6.68182C39.9865 7.29545 40.2791 8.01136 40.3928 8.82955H38.3814C38.228 8.23295 37.8871 7.70455 37.3586 7.24432C36.8359 6.77841 36.1314 6.54545 35.2451 6.54545C34.4609 6.54545 33.7734 6.75 33.1826 7.15909C32.5973 7.5625 32.1399 8.13352 31.8104 8.87216C31.4865 9.60511 31.3246 10.4659 31.3246 11.4545C31.3246 12.4659 31.4836 13.3466 31.8018 14.0966C32.1257 14.8466 32.5803 15.429 33.1655 15.8438C33.7564 16.2585 34.4496 16.4659 35.2451 16.4659C35.7678 16.4659 36.2422 16.375 36.6683 16.1932C37.0945 16.0114 37.4553 15.75 37.7507 15.4091C38.0461 15.0682 38.2564 14.6591 38.3814 14.1818H40.3928C40.2791 14.9545 39.9979 15.6506 39.549 16.2699C39.1058 16.8835 38.5178 17.3722 37.7848 17.7358C37.0576 18.0938 36.2109 18.2727 35.2451 18.2727ZM43.3331 4.90909H45.3445V18H43.3331V4.90909ZM44.3558 2.72727C43.9638 2.72727 43.6257 2.59375 43.3416 2.3267C43.0632 2.05966 42.924 1.73864 42.924 1.36364C42.924 0.988636 43.0632 0.667614 43.3416 0.400568C43.6257 0.133523 43.9638 0 44.3558 0C44.7479 0 45.0831 0.133523 45.3615 0.400568C45.6456 0.667614 45.7877 0.988636 45.7877 1.36364C45.7877 1.73864 45.6456 2.05966 45.3615 2.3267C45.0831 2.59375 44.7479 2.72727 44.3558 2.72727ZM54.3466 18.2727C53.1648 18.2727 52.1279 17.9915 51.2358 17.429C50.3494 16.8665 49.6562 16.0795 49.1562 15.0682C48.6619 14.0568 48.4148 12.875 48.4148 11.5227C48.4148 10.1591 48.6619 8.96875 49.1562 7.9517C49.6562 6.93466 50.3494 6.14489 51.2358 5.58239C52.1279 5.01989 53.1648 4.73864 54.3466 4.73864C55.5284 4.73864 56.5625 5.01989 57.4489 5.58239C58.3409 6.14489 59.0341 6.93466 59.5284 7.9517C60.0284 8.96875 60.2784 10.1591 60.2784 11.5227C60.2784 12.875 60.0284 14.0568 59.5284 15.0682C59.0341 16.0795 58.3409 16.8665 57.4489 17.429C56.5625 17.9915 55.5284 18.2727 54.3466 18.2727ZM54.3466 16.4659C55.2443 16.4659 55.983 16.2358 56.5625 15.7756C57.142 15.3153 57.571 14.7102 57.8494 13.9602C58.1279 13.2102 58.267 12.3977 58.267 11.5227C58.267 10.6477 58.1279 9.83239 57.8494 9.0767C57.571 8.32102 57.142 7.71023 56.5625 7.24432C55.983 6.77841 55.2443 6.54545 54.3466 6.54545C53.4489 6.54545 52.7102 6.77841 52.1307 7.24432C51.5511 7.71023 51.1221 8.32102 50.8438 9.0767C50.5654 9.83239 50.4261 10.6477 50.4261 11.5227C50.4261 12.3977 50.5654 13.2102 50.8438 13.9602C51.1221 14.7102 51.5511 15.3153 52.1307 15.7756C52.7102 16.2358 53.4489 16.4659 54.3466 16.4659ZM824.114 2.54545V20H826.227V13.1818H830.045C830.197 13.1818 830.345 13.179 830.49 13.1734L834.17 20H836.625L832.682 12.8026C832.929 12.7185 833.161 12.6205 833.378 12.5085C834.247 12.054 834.892 11.429 835.312 10.6335C835.733 9.83807 835.943 8.92614 835.943 7.89773C835.943 6.86932 835.733 5.9517 835.312 5.14489C834.892 4.33807 834.244 3.70454 833.369 3.24432C832.494 2.77841 831.375 2.54545 830.011 2.54545H824.114ZM826.227 11.2727H829.977C830.909 11.2727 831.659 11.1364 832.227 10.8636C832.801 10.5909 833.216 10.2045 833.472 9.70455C833.733 9.19886 833.864 8.59659 833.864 7.89773C833.864 7.19886 833.733 6.58807 833.472 6.06534C833.21 5.54261 832.793 5.1392 832.219 4.85511C831.645 4.56534 830.886 4.42045 829.943 4.42045H826.227V11.2727ZM841.276 19.4375C842.191 19.9943 843.279 20.2727 844.541 20.2727C845.427 20.2727 846.225 20.1364 846.935 19.8636C847.646 19.5852 848.242 19.1989 848.725 18.7045C849.208 18.2045 849.552 17.625 849.756 16.9659L847.813 16.4205C847.643 16.875 847.401 17.2557 847.089 17.5625C846.776 17.8636 846.404 18.0909 845.972 18.2443C845.546 18.392 845.069 18.4659 844.541 18.4659C843.728 18.4659 843.015 18.2898 842.401 17.9375C841.788 17.5795 841.307 17.0597 840.961 16.3778C840.652 15.7545 840.483 15.0073 840.454 14.1364H849.961V13.2841C849.961 12.0625 849.799 11.0341 849.475 10.1989C849.151 9.36364 848.717 8.69318 848.171 8.1875C847.626 7.67614 847.021 7.30682 846.356 7.07954C845.691 6.85227 845.018 6.73864 844.336 6.73864C843.154 6.73864 842.12 7.02841 841.234 7.60795C840.353 8.18182 839.666 8.98295 839.171 10.0114C838.682 11.0341 838.438 12.2159 838.438 13.5568C838.438 14.8977 838.682 16.0739 839.171 17.0852C839.666 18.0909 840.367 18.875 841.276 19.4375ZM840.459 12.3977C840.498 11.7905 840.651 11.2166 840.918 10.6761C841.231 10.0455 841.677 9.53409 842.256 9.14205C842.842 8.74432 843.535 8.54545 844.336 8.54545C845.063 8.54545 845.694 8.71307 846.228 9.0483C846.768 9.38352 847.182 9.84091 847.472 10.4205C847.768 11 847.916 11.6591 847.916 12.3977H840.459ZM855.799 24.8068C856.498 25.0568 857.333 25.1818 858.305 25.1818C859.35 25.1818 860.299 25.0142 861.151 24.679C862.009 24.3494 862.691 23.8295 863.197 23.1193C863.708 22.4148 863.964 21.5 863.964 20.375V6.90909H862.021V8.98864H861.816C861.668 8.76136 861.458 8.47159 861.185 8.11932C860.918 7.76136 860.532 7.44318 860.026 7.16477C859.526 6.88068 858.85 6.73864 857.998 6.73864C856.896 6.73864 855.924 7.0142 855.083 7.56534C854.242 8.1108 853.586 8.88352 853.114 9.88352C852.643 10.8778 852.407 12.0455 852.407 13.3864C852.407 14.75 852.648 15.9091 853.131 16.8636C853.62 17.8182 854.282 18.5455 855.117 19.0455C855.958 19.5455 856.907 19.7955 857.964 19.7955C858.816 19.7955 859.492 19.6619 859.992 19.3949C860.498 19.1222 860.884 18.8125 861.151 18.4659C861.424 18.1136 861.634 17.8182 861.782 17.5795H861.952V20.2386C861.952 21.3295 861.609 22.1307 860.921 22.642C860.234 23.1534 859.361 23.4091 858.305 23.4091C857.515 23.4091 856.876 23.2926 856.387 23.0597C855.904 22.8324 855.523 22.5625 855.245 22.25C854.967 21.9432 854.736 21.6705 854.555 21.4318L852.952 22.5568C853.225 23.0114 853.592 23.4375 854.052 23.8352C854.518 24.2386 855.1 24.5625 855.799 24.8068ZM860.282 17.4347C859.725 17.804 859.043 17.9886 858.236 17.9886C857.396 17.9886 856.691 17.7926 856.123 17.4006C855.56 17.0028 855.134 16.4574 854.844 15.7642C854.56 15.0653 854.418 14.2614 854.418 13.3523C854.418 12.4659 854.557 11.6591 854.836 10.9318C855.12 10.2045 855.543 9.625 856.106 9.19318C856.674 8.76136 857.384 8.54545 858.236 8.54545C859.055 8.54545 859.742 8.75 860.299 9.15909C860.856 9.56818 861.276 10.1335 861.56 10.8551C861.844 11.5767 861.986 12.4091 861.986 13.3523C861.986 14.3182 861.842 15.1477 861.552 15.8409C861.262 16.5341 860.839 17.0653 860.282 17.4347ZM867.646 6.90909V20H869.657V6.90909H867.646ZM869.827 1.18182L867.748 5.13636H869.521L872.18 1.18182H869.827ZM880.807 10.3523L882.614 9.84091C882.301 8.90909 881.773 8.15909 881.028 7.59091C880.29 7.02273 879.273 6.73864 877.977 6.73864C877.057 6.73864 876.233 6.90057 875.506 7.22443C874.784 7.5483 874.213 7.99432 873.793 8.5625C873.378 9.13068 873.17 9.78409 873.17 10.5227C873.17 11.4261 873.449 12.179 874.006 12.7812C874.568 13.3778 875.449 13.8182 876.648 14.1023L878.83 14.6136C879.489 14.767 879.977 15 880.295 15.3125C880.614 15.6193 880.773 16 880.773 16.4545C880.773 17.017 880.494 17.5 879.938 17.9034C879.386 18.3011 878.642 18.5 877.705 18.5C876.881 18.5 876.213 18.3239 875.702 17.9716C875.196 17.6193 874.852 17.0909 874.67 16.3864L872.761 16.8636C872.994 17.9773 873.548 18.8239 874.423 19.4034C875.298 19.983 876.403 20.2727 877.739 20.2727C878.756 20.2727 879.648 20.1023 880.415 19.7614C881.182 19.4205 881.778 18.9545 882.205 18.3636C882.636 17.7727 882.852 17.1023 882.852 16.3523C882.852 15.4375 882.565 14.6903 881.991 14.1108C881.418 13.5256 880.545 13.0909 879.375 12.8068L877.432 12.3295C876.659 12.1364 876.091 11.8949 875.727 11.6051C875.364 11.3153 875.182 10.9205 875.182 10.4205C875.182 9.85795 875.446 9.39489 875.974 9.03125C876.509 8.66193 877.176 8.47727 877.977 8.47727C878.562 8.47727 879.043 8.57102 879.418 8.75852C879.793 8.94602 880.088 9.18466 880.304 9.47443C880.526 9.75852 880.693 10.0511 880.807 10.3523ZM891.573 8.61364V6.90909H888.778V3.77273H886.766V6.90909H884.789V8.61364H886.766V16.7955C886.766 17.5568 886.943 18.1875 887.295 18.6875C887.653 19.1875 888.102 19.5597 888.641 19.804C889.187 20.0483 889.744 20.1705 890.312 20.1705C890.687 20.1705 890.996 20.142 891.241 20.0852C891.485 20.0341 891.675 19.983 891.812 19.9318L891.403 18.125L891.062 18.1932C890.92 18.2159 890.738 18.2273 890.516 18.2273C890.221 18.2273 889.94 18.1818 889.673 18.0909C889.411 17.9943 889.195 17.8068 889.025 17.5284C888.86 17.2443 888.778 16.8182 888.778 16.25V8.61364H891.573ZM894.599 6.90909V20H896.61V11.7159C896.61 11.125 896.752 10.5994 897.036 10.1392C897.326 9.6733 897.718 9.30966 898.212 9.0483C898.712 8.78125 899.281 8.64773 899.917 8.64773C900.184 8.64773 900.437 8.66761 900.675 8.70739C900.92 8.74148 901.076 8.76705 901.144 8.78409V6.73864C901.031 6.72727 900.863 6.71875 900.641 6.71307C900.42 6.70739 900.235 6.70454 900.087 6.70454C899.303 6.70454 898.599 6.90625 897.974 7.30966C897.349 7.71307 896.917 8.23864 896.678 8.88636H896.542V6.90909H894.599ZM905.122 19.8381C905.798 20.1506 906.551 20.3068 907.381 20.3068C908.142 20.3068 908.787 20.1932 909.315 19.9659C909.844 19.7386 910.267 19.4631 910.585 19.1392C910.903 18.8153 911.131 18.5114 911.267 18.2273H911.369V20H913.381V11.375C913.381 10.3352 913.21 9.50568 912.869 8.88636C912.528 8.26705 912.099 7.80398 911.582 7.49716C911.071 7.19034 910.54 6.98864 909.989 6.89204C909.443 6.78977 908.96 6.73864 908.54 6.73864C907.881 6.73864 907.21 6.82955 906.528 7.01136C905.852 7.1875 905.227 7.5 904.653 7.94886C904.085 8.39205 903.631 9.01136 903.29 9.80682L905.199 10.4886C905.42 10.0114 905.804 9.5625 906.349 9.14205C906.895 8.72159 907.648 8.51136 908.608 8.51136C909.534 8.51136 910.224 8.74432 910.679 9.21023C911.139 9.67614 911.369 10.3295 911.369 11.1705V11.2386C911.369 11.5625 911.253 11.7898 911.02 11.9205C910.793 12.0511 910.429 12.1449 909.929 12.2017C909.435 12.2528 908.79 12.3295 907.994 12.4318C907.386 12.5114 906.781 12.6193 906.179 12.7557C905.582 12.8864 905.037 13.0852 904.543 13.3523C904.048 13.6193 903.653 13.9886 903.358 14.4602C903.062 14.9261 902.915 15.5341 902.915 16.2841C902.915 17.1364 903.114 17.8636 903.511 18.4659C903.909 19.0625 904.446 19.5199 905.122 19.8381ZM909.699 18.0312C909.153 18.3438 908.483 18.5 907.688 18.5C906.886 18.5 906.224 18.3239 905.702 17.9716C905.185 17.6136 904.926 17.0852 904.926 16.3864C904.926 15.875 905.062 15.4716 905.335 15.1761C905.614 14.875 905.977 14.6506 906.426 14.5028C906.881 14.3494 907.369 14.2386 907.892 14.1705C908.108 14.142 908.389 14.108 908.736 14.0682C909.088 14.0227 909.449 13.9716 909.818 13.9148C910.193 13.8523 910.523 13.7812 910.807 13.7017C911.097 13.6165 911.284 13.5227 911.369 13.4205V15.2614C911.369 15.8068 911.227 16.3267 910.943 16.821C910.665 17.3153 910.25 17.7188 909.699 18.0312ZM922.745 8.61364V6.90909H919.95V3.77273H917.938V6.90909H915.961V8.61364H917.938V16.7955C917.938 17.5568 918.114 18.1875 918.467 18.6875C918.825 19.1875 919.273 19.5597 919.813 19.804C920.359 20.0483 920.916 20.1705 921.484 20.1705C921.859 20.1705 922.168 20.142 922.413 20.0852C922.657 20.0341 922.847 19.983 922.984 19.9318L922.575 18.125L922.234 18.1932C922.092 18.2159 921.91 18.2273 921.688 18.2273C921.393 18.2273 921.111 18.1818 920.844 18.0909C920.583 17.9943 920.367 17.8068 920.197 17.5284C920.032 17.2443 919.95 16.8182 919.95 16.25V8.61364H922.745ZM927.854 19.4375C928.769 19.9943 929.857 20.2727 931.119 20.2727C932.005 20.2727 932.803 20.1364 933.514 19.8636C934.224 19.5852 934.82 19.1989 935.303 18.7045C935.786 18.2045 936.13 17.625 936.334 16.9659L934.391 16.4205C934.221 16.875 933.979 17.2557 933.667 17.5625C933.354 17.8636 932.982 18.0909 932.55 18.2443C932.124 18.392 931.647 18.4659 931.119 18.4659C930.306 18.4659 929.593 18.2898 928.979 17.9375C928.366 17.5795 927.886 17.0597 927.539 16.3778C927.23 15.7545 927.061 15.0073 927.032 14.1364H936.539V13.2841C936.539 12.0625 936.377 11.0341 936.053 10.1989C935.729 9.36364 935.295 8.69318 934.749 8.1875C934.204 7.67614 933.599 7.30682 932.934 7.07954C932.269 6.85227 931.596 6.73864 930.914 6.73864C929.732 6.73864 928.698 7.02841 927.812 7.60795C926.931 8.18182 926.244 8.98295 925.749 10.0114C925.261 11.0341 925.016 12.2159 925.016 13.5568C925.016 14.8977 925.261 16.0739 925.749 17.0852C926.244 18.0909 926.945 18.875 927.854 19.4375ZM927.037 12.3977C927.076 11.7905 927.229 11.2166 927.496 10.6761C927.809 10.0455 928.255 9.53409 928.834 9.14205C929.42 8.74432 930.113 8.54545 930.914 8.54545C931.641 8.54545 932.272 8.71307 932.806 9.0483C933.346 9.38352 933.761 9.84091 934.05 10.4205C934.346 11 934.494 11.6591 934.494 12.3977H927.037ZM1002.23 2.54545H1000.11V20H1010.34V18.125H1002.23V2.54545ZM1015.55 19.429C1016.44 19.9915 1017.48 20.2727 1018.66 20.2727C1019.84 20.2727 1020.88 19.9915 1021.76 19.429C1022.65 18.8665 1023.35 18.0795 1023.84 17.0682C1024.34 16.0568 1024.59 14.875 1024.59 13.5227C1024.59 12.1591 1024.34 10.9688 1023.84 9.9517C1023.35 8.93466 1022.65 8.14489 1021.76 7.58239C1020.88 7.01989 1019.84 6.73864 1018.66 6.73864C1017.48 6.73864 1016.44 7.01989 1015.55 7.58239C1014.66 8.14489 1013.97 8.93466 1013.47 9.9517C1012.97 10.9688 1012.73 12.1591 1012.73 13.5227C1012.73 14.875 1012.97 16.0568 1013.47 17.0682C1013.97 18.0795 1014.66 18.8665 1015.55 19.429ZM1020.88 17.7756C1020.3 18.2358 1019.56 18.4659 1018.66 18.4659C1017.76 18.4659 1017.02 18.2358 1016.44 17.7756C1015.86 17.3153 1015.43 16.7102 1015.16 15.9602C1014.88 15.2102 1014.74 14.3977 1014.74 13.5227C1014.74 12.6477 1014.88 11.8324 1015.16 11.0767C1015.43 10.321 1015.86 9.71023 1016.44 9.24432C1017.02 8.77841 1017.76 8.54545 1018.66 8.54545C1019.56 8.54545 1020.3 8.77841 1020.88 9.24432C1021.45 9.71023 1021.88 10.321 1022.16 11.0767C1022.44 11.8324 1022.58 12.6477 1022.58 13.5227C1022.58 14.3977 1022.44 15.2102 1022.16 15.9602C1021.88 16.7102 1021.45 17.3153 1020.88 17.7756ZM1030.44 24.8068C1031.14 25.0568 1031.97 25.1818 1032.95 25.1818C1033.99 25.1818 1034.94 25.0142 1035.79 24.679C1036.65 24.3494 1037.33 23.8295 1037.84 23.1193C1038.35 22.4148 1038.6 21.5 1038.6 20.375V6.90909H1036.66V8.98864H1036.46C1036.31 8.76136 1036.1 8.47159 1035.83 8.11932C1035.56 7.76136 1035.17 7.44318 1034.67 7.16477C1034.17 6.88068 1033.49 6.73864 1032.64 6.73864C1031.54 6.73864 1030.56 7.0142 1029.72 7.56534C1028.88 8.1108 1028.23 8.88352 1027.76 9.88352C1027.28 10.8778 1027.05 12.0455 1027.05 13.3864C1027.05 14.75 1027.29 15.9091 1027.77 16.8636C1028.26 17.8182 1028.92 18.5455 1029.76 19.0455C1030.6 19.5455 1031.55 19.7955 1032.6 19.7955C1033.46 19.7955 1034.13 19.6619 1034.63 19.3949C1035.14 19.1222 1035.52 18.8125 1035.79 18.4659C1036.06 18.1136 1036.27 17.8182 1036.42 17.5795H1036.59V20.2386C1036.59 21.3295 1036.25 22.1307 1035.56 22.642C1034.87 23.1534 1034 23.4091 1032.95 23.4091C1032.16 23.4091 1031.52 23.2926 1031.03 23.0597C1030.54 22.8324 1030.16 22.5625 1029.89 22.25C1029.61 21.9432 1029.38 21.6705 1029.2 21.4318L1027.59 22.5568C1027.87 23.0114 1028.23 23.4375 1028.69 23.8352C1029.16 24.2386 1029.74 24.5625 1030.44 24.8068ZM1034.92 17.4347C1034.37 17.804 1033.68 17.9886 1032.88 17.9886C1032.04 17.9886 1031.33 17.7926 1030.76 17.4006C1030.2 17.0028 1029.77 16.4574 1029.49 15.7642C1029.2 15.0653 1029.06 14.2614 1029.06 13.3523C1029.06 12.4659 1029.2 11.6591 1029.48 10.9318C1029.76 10.2045 1030.18 9.625 1030.75 9.19318C1031.31 8.76136 1032.02 8.54545 1032.88 8.54545C1033.7 8.54545 1034.38 8.75 1034.94 9.15909C1035.5 9.56818 1035.92 10.1335 1036.2 10.8551C1036.49 11.5767 1036.63 12.4091 1036.63 13.3523C1036.63 14.3182 1036.48 15.1477 1036.19 15.8409C1035.9 16.5341 1035.48 17.0653 1034.92 17.4347ZM1042.29 6.90909V20H1044.3V6.90909H1042.29ZM1042.29 4.3267C1042.58 4.59375 1042.92 4.72727 1043.31 4.72727C1043.7 4.72727 1044.04 4.59375 1044.31 4.3267C1044.6 4.05966 1044.74 3.73864 1044.74 3.36364C1044.74 2.98864 1044.6 2.66761 1044.31 2.40057C1044.04 2.13352 1043.7 2 1043.31 2C1042.92 2 1042.58 2.13352 1042.29 2.40057C1042.02 2.66761 1041.88 2.98864 1041.88 3.36364C1041.88 3.73864 1042.02 4.05966 1042.29 4.3267ZM1049.99 20V12.125C1049.99 11.3636 1050.14 10.7159 1050.43 10.1818C1050.72 9.64773 1051.11 9.24148 1051.61 8.96307C1052.12 8.68466 1052.69 8.54545 1053.33 8.54545C1054.27 8.54545 1055 8.83523 1055.53 9.41477C1056.07 9.98864 1056.33 10.7898 1056.33 11.8182V20H1058.35V11.6818C1058.35 10.5682 1058.16 9.64773 1057.79 8.92045C1057.42 8.1875 1056.9 7.64205 1056.24 7.28409C1055.58 6.92045 1054.8 6.73864 1053.91 6.73864C1052.92 6.73864 1052.12 6.94318 1051.49 7.35227C1050.87 7.75568 1050.4 8.28977 1050.1 8.95455H1049.92V6.90909H1047.98V20H1049.99ZM99.1136 0.545454V18H101.227V11.625H105.045C106.403 11.625 107.517 11.3778 108.386 10.8835C109.256 10.3835 109.898 9.71307 110.312 8.87216C110.733 8.03125 110.943 7.09659 110.943 6.06818C110.943 5.03977 110.733 4.10795 110.312 3.27273C109.892 2.4375 109.244 1.77557 108.369 1.28693C107.5 0.792613 106.381 0.545454 105.011 0.545454H99.1136ZM104.977 9.75H101.227V2.42045H104.943C105.892 2.42045 106.653 2.57955 107.227 2.89773C107.801 3.21023 108.216 3.64205 108.472 4.19318C108.733 4.74432 108.864 5.36932 108.864 6.06818C108.864 6.76705 108.733 7.39489 108.472 7.9517C108.216 8.50284 107.804 8.94034 107.236 9.2642C106.668 9.58807 105.915 9.75 104.977 9.75ZM114.075 4.90909V18H116.087V9.71591C116.087 9.125 116.229 8.59943 116.513 8.1392C116.803 7.6733 117.195 7.30966 117.689 7.0483C118.189 6.78125 118.757 6.64773 119.393 6.64773C119.661 6.64773 119.913 6.66761 120.152 6.70739C120.396 6.74148 120.553 6.76705 120.621 6.78409V4.73864C120.507 4.72727 120.339 4.71875 120.118 4.71307C119.896 4.70739 119.712 4.70454 119.564 4.70454C118.78 4.70454 118.075 4.90625 117.45 5.30966C116.825 5.71307 116.393 6.23864 116.155 6.88636H116.018V4.90909H114.075ZM124.814 17.429C125.706 17.9915 126.743 18.2727 127.925 18.2727C129.107 18.2727 130.141 17.9915 131.027 17.429C131.919 16.8665 132.612 16.0795 133.107 15.0682C133.607 14.0568 133.857 12.875 133.857 11.5227C133.857 10.1591 133.607 8.96875 133.107 7.9517C132.612 6.93466 131.919 6.14489 131.027 5.58239C130.141 5.01989 129.107 4.73864 127.925 4.73864C126.743 4.73864 125.706 5.01989 124.814 5.58239C123.928 6.14489 123.234 6.93466 122.734 7.9517C122.24 8.96875 121.993 10.1591 121.993 11.5227C121.993 12.875 122.24 14.0568 122.734 15.0682C123.234 16.0795 123.928 16.8665 124.814 17.429ZM130.141 15.7756C129.561 16.2358 128.822 16.4659 127.925 16.4659C127.027 16.4659 126.288 16.2358 125.709 15.7756C125.129 15.3153 124.7 14.7102 124.422 13.9602C124.143 13.2102 124.004 12.3977 124.004 11.5227C124.004 10.6477 124.143 9.83239 124.422 9.0767C124.7 8.32102 125.129 7.71023 125.709 7.24432C126.288 6.77841 127.027 6.54545 127.925 6.54545C128.822 6.54545 129.561 6.77841 130.141 7.24432C130.72 7.71023 131.149 8.32102 131.428 9.0767C131.706 9.83239 131.845 10.6477 131.845 11.5227C131.845 12.3977 131.706 13.2102 131.428 13.9602C131.149 14.7102 130.72 15.3153 130.141 15.7756ZM138.981 17.446C139.816 17.9972 140.779 18.2727 141.87 18.2727C142.711 18.2727 143.384 18.1335 143.89 17.8551C144.396 17.571 144.785 17.25 145.058 16.892C145.33 16.5284 145.54 16.2273 145.688 15.9886H145.927V18H147.87V0.545454H145.859V6.98864H145.688C145.54 6.76136 145.333 6.47159 145.066 6.11932C144.805 5.76136 144.424 5.44318 143.924 5.16477C143.43 4.88068 142.756 4.73864 141.904 4.73864C140.802 4.73864 139.83 5.0142 138.989 5.56534C138.148 6.11648 137.492 6.89773 137.021 7.90909C136.549 8.92045 136.313 10.1136 136.313 11.4886C136.313 12.875 136.549 14.0767 137.021 15.0938C137.492 16.1051 138.146 16.8892 138.981 17.446ZM144.188 15.8352C143.631 16.2557 142.95 16.4659 142.143 16.4659C141.302 16.4659 140.597 16.2443 140.029 15.8011C139.467 15.3523 139.04 14.75 138.751 13.9943C138.467 13.233 138.325 12.3864 138.325 11.4545C138.325 10.5341 138.464 9.70455 138.742 8.96591C139.026 8.22159 139.45 7.63352 140.012 7.2017C140.58 6.7642 141.29 6.54545 142.143 6.54545C142.961 6.54545 143.648 6.75284 144.205 7.16761C144.762 7.5767 145.183 8.15057 145.467 8.8892C145.751 9.62216 145.893 10.4773 145.893 11.4545C145.893 12.4432 145.748 13.3153 145.458 14.071C145.168 14.821 144.745 15.4091 144.188 15.8352ZM160.083 4.90909V12.6477C160.083 13.4659 159.904 14.1392 159.546 14.6676C159.194 15.196 158.756 15.5881 158.234 15.8438C157.717 16.0994 157.208 16.2273 156.708 16.2273C155.873 16.2273 155.185 15.9432 154.646 15.375C154.112 14.8068 153.844 14.0455 153.844 13.0909V4.90909H151.833V13.2273C151.833 14.3409 152.015 15.2642 152.379 15.9972C152.742 16.7244 153.242 17.2699 153.879 17.6335C154.515 17.9915 155.242 18.1705 156.06 18.1705C157.049 18.1705 157.867 17.9403 158.515 17.4801C159.163 17.0142 159.64 16.4489 159.947 15.7841H160.083V18H162.094V4.90909H160.083ZM167.926 17.4034C168.812 17.983 169.869 18.2727 171.097 18.2727C172.062 18.2727 172.909 18.0938 173.636 17.7358C174.369 17.3722 174.957 16.8835 175.401 16.2699C175.849 15.6506 176.131 14.9545 176.244 14.1818H174.233C174.108 14.6591 173.898 15.0682 173.602 15.4091C173.307 15.75 172.946 16.0114 172.52 16.1932C172.094 16.375 171.619 16.4659 171.097 16.4659C170.301 16.4659 169.608 16.2585 169.017 15.8438C168.432 15.429 167.977 14.8466 167.653 14.0966C167.335 13.3466 167.176 12.4659 167.176 11.4545C167.176 10.4659 167.338 9.60511 167.662 8.87216C167.991 8.13352 168.449 7.5625 169.034 7.15909C169.625 6.75 170.312 6.54545 171.097 6.54545C171.983 6.54545 172.688 6.77841 173.21 7.24432C173.739 7.70455 174.08 8.23295 174.233 8.82955H176.244C176.131 8.01136 175.838 7.29545 175.366 6.68182C174.895 6.06818 174.29 5.59091 173.551 5.25C172.812 4.90909 171.983 4.73864 171.062 4.73864C169.881 4.73864 168.847 5.02841 167.96 5.60795C167.08 6.18182 166.392 6.98011 165.898 8.00284C165.409 9.01989 165.165 10.1932 165.165 11.5227C165.165 12.8295 165.403 13.9915 165.881 15.0085C166.358 16.0256 167.04 16.8239 167.926 17.4034ZM184.878 6.61364V4.90909H182.082V1.77273H180.071V4.90909H178.094V6.61364H180.071V14.7955C180.071 15.5568 180.247 16.1875 180.599 16.6875C180.957 17.1875 181.406 17.5597 181.946 17.804C182.491 18.0483 183.048 18.1705 183.616 18.1705C183.991 18.1705 184.301 18.142 184.545 18.0852C184.79 18.0341 184.98 17.983 185.116 17.9318L184.707 16.125L184.366 16.1932C184.224 16.2159 184.043 16.2273 183.821 16.2273C183.526 16.2273 183.244 16.1818 182.977 16.0909C182.716 15.9943 182.5 15.8068 182.33 15.5284C182.165 15.2443 182.082 14.8182 182.082 14.25V6.61364H184.878ZM189.97 17.429C190.862 17.9915 191.899 18.2727 193.081 18.2727C194.263 18.2727 195.297 17.9915 196.183 17.429C197.075 16.8665 197.768 16.0795 198.263 15.0682C198.763 14.0568 199.013 12.875 199.013 11.5227C199.013 10.1591 198.763 8.96875 198.263 7.9517C197.768 6.93466 197.075 6.14489 196.183 5.58239C195.297 5.01989 194.263 4.73864 193.081 4.73864C191.899 4.73864 190.862 5.01989 189.97 5.58239C189.084 6.14489 188.391 6.93466 187.891 7.9517C187.396 8.96875 187.149 10.1591 187.149 11.5227C187.149 12.875 187.396 14.0568 187.891 15.0682C188.391 16.0795 189.084 16.8665 189.97 17.429ZM195.297 15.7756C194.717 16.2358 193.979 16.4659 193.081 16.4659C192.183 16.4659 191.445 16.2358 190.865 15.7756C190.286 15.3153 189.857 14.7102 189.578 13.9602C189.3 13.2102 189.161 12.3977 189.161 11.5227C189.161 10.6477 189.3 9.83239 189.578 9.0767C189.857 8.32102 190.286 7.71023 190.865 7.24432C191.445 6.77841 192.183 6.54545 193.081 6.54545C193.979 6.54545 194.717 6.77841 195.297 7.24432C195.876 7.71023 196.305 8.32102 196.584 9.0767C196.862 9.83239 197.001 10.6477 197.001 11.5227C197.001 12.3977 196.862 13.2102 196.584 13.9602C196.305 14.7102 195.876 15.3153 195.297 15.7756ZM209.549 8.35227L211.356 7.84091C211.043 6.90909 210.515 6.15909 209.771 5.59091C209.032 5.02273 208.015 4.73864 206.719 4.73864C205.799 4.73864 204.975 4.90057 204.248 5.22443C203.526 5.5483 202.955 5.99432 202.535 6.5625C202.12 7.13068 201.913 7.78409 201.913 8.52273C201.913 9.42614 202.191 10.179 202.748 10.7812C203.31 11.3778 204.191 11.8182 205.39 12.1023L207.572 12.6136C208.231 12.767 208.719 13 209.038 13.3125C209.356 13.6193 209.515 14 209.515 14.4545C209.515 15.017 209.237 15.5 208.68 15.9034C208.129 16.3011 207.384 16.5 206.447 16.5C205.623 16.5 204.955 16.3239 204.444 15.9716C203.938 15.6193 203.594 15.0909 203.413 14.3864L201.504 14.8636C201.737 15.9773 202.29 16.8239 203.165 17.4034C204.04 17.983 205.146 18.2727 206.481 18.2727C207.498 18.2727 208.39 18.1023 209.157 17.7614C209.924 17.4205 210.521 16.9545 210.947 16.3636C211.379 15.7727 211.594 15.1023 211.594 14.3523C211.594 13.4375 211.308 12.6903 210.734 12.1108C210.16 11.5256 209.288 11.0909 208.117 10.8068L206.174 10.3295C205.401 10.1364 204.833 9.89489 204.469 9.60511C204.106 9.31534 203.924 8.92045 203.924 8.42045C203.924 7.85795 204.188 7.39489 204.717 7.03125C205.251 6.66193 205.918 6.47727 206.719 6.47727C207.305 6.47727 207.785 6.57102 208.16 6.75852C208.535 6.94602 208.83 7.18466 209.046 7.47443C209.268 7.75852 209.435 8.05114 209.549 8.35227ZM250.659 4.90909C250.557 4.04545 250.142 3.375 249.415 2.89773C248.688 2.42045 247.795 2.18182 246.739 2.18182C245.966 2.18182 245.29 2.30682 244.71 2.55682C244.136 2.80682 243.688 3.15057 243.364 3.58807C243.045 4.02557 242.886 4.52273 242.886 5.07954C242.886 5.54545 242.997 5.94602 243.219 6.28125C243.446 6.6108 243.736 6.88636 244.088 7.10795C244.44 7.32386 244.81 7.50284 245.196 7.64489C245.582 7.78125 245.938 7.89205 246.261 7.97727L248.034 8.45455C248.489 8.57386 248.994 8.73864 249.551 8.94886C250.114 9.15909 250.651 9.44602 251.162 9.80966C251.679 10.1676 252.105 10.6278 252.44 11.1903C252.776 11.7528 252.943 12.4432 252.943 13.2614C252.943 14.2045 252.696 15.0568 252.202 15.8182C251.713 16.5795 250.997 17.1847 250.054 17.6335C249.116 18.0824 247.977 18.3068 246.636 18.3068C245.386 18.3068 244.304 18.1051 243.389 17.7017C242.48 17.2983 241.764 16.7358 241.241 16.0142C240.724 15.2926 240.432 14.4545 240.364 13.5H242.545C242.602 14.1591 242.824 14.7045 243.21 15.1364C243.602 15.5625 244.097 15.8807 244.693 16.0909C245.295 16.2955 245.943 16.3977 246.636 16.3977C247.443 16.3977 248.168 16.267 248.81 16.0057C249.452 15.7386 249.96 15.3693 250.335 14.8977C250.71 14.4205 250.898 13.8636 250.898 13.2273C250.898 12.6477 250.736 12.1761 250.412 11.8125C250.088 11.4489 249.662 11.1534 249.134 10.9261C248.605 10.6989 248.034 10.5 247.42 10.3295L245.273 9.71591C243.909 9.32386 242.83 8.7642 242.034 8.03693C241.239 7.30966 240.841 6.35795 240.841 5.18182C240.841 4.20454 241.105 3.35227 241.634 2.625C242.168 1.89205 242.884 1.32386 243.781 0.920454C244.685 0.511363 245.693 0.306818 246.807 0.306818C247.932 0.306818 248.932 0.508522 249.807 0.911931C250.682 1.30966 251.375 1.85511 251.886 2.54829C252.403 3.24148 252.676 4.02841 252.705 4.90909H250.659ZM261.464 18.2727C260.282 18.2727 259.245 17.9915 258.353 17.429C257.467 16.8665 256.773 16.0795 256.273 15.0682C255.779 14.0568 255.532 12.875 255.532 11.5227C255.532 10.1591 255.779 8.96875 256.273 7.9517C256.773 6.93466 257.467 6.14489 258.353 5.58239C259.245 5.01989 260.282 4.73864 261.464 4.73864C262.646 4.73864 263.68 5.01989 264.566 5.58239C265.458 6.14489 266.151 6.93466 266.646 7.9517C267.146 8.96875 267.396 10.1591 267.396 11.5227C267.396 12.875 267.146 14.0568 266.646 15.0682C266.151 16.0795 265.458 16.8665 264.566 17.429C263.68 17.9915 262.646 18.2727 261.464 18.2727ZM261.464 16.4659C262.362 16.4659 263.1 16.2358 263.68 15.7756C264.259 15.3153 264.688 14.7102 264.967 13.9602C265.245 13.2102 265.384 12.3977 265.384 11.5227C265.384 10.6477 265.245 9.83239 264.967 9.0767C264.688 8.32102 264.259 7.71023 263.68 7.24432C263.1 6.77841 262.362 6.54545 261.464 6.54545C260.566 6.54545 259.827 6.77841 259.248 7.24432C258.668 7.71023 258.239 8.32102 257.961 9.0767C257.683 9.83239 257.543 10.6477 257.543 11.5227C257.543 12.3977 257.683 13.2102 257.961 13.9602C258.239 14.7102 258.668 15.3153 259.248 15.7756C259.827 16.2358 260.566 16.4659 261.464 16.4659ZM270.739 18V0.545454H272.75V6.98864H272.92C273.068 6.76136 273.273 6.47159 273.534 6.11932C273.801 5.76136 274.182 5.44318 274.676 5.16477C275.176 4.88068 275.852 4.73864 276.705 4.73864C277.807 4.73864 278.778 5.0142 279.619 5.56534C280.46 6.11648 281.116 6.89773 281.588 7.90909C282.06 8.92045 282.295 10.1136 282.295 11.4886C282.295 12.875 282.06 14.0767 281.588 15.0938C281.116 16.1051 280.463 16.8892 279.628 17.446C278.793 17.9972 277.83 18.2727 276.739 18.2727C275.898 18.2727 275.224 18.1335 274.719 17.8551C274.213 17.571 273.824 17.25 273.551 16.892C273.278 16.5284 273.068 16.2273 272.92 15.9886H272.682V18H270.739ZM272.716 11.4545C272.716 12.4432 272.861 13.3153 273.151 14.071C273.44 14.821 273.864 15.4091 274.42 15.8352C274.977 16.2557 275.659 16.4659 276.466 16.4659C277.307 16.4659 278.009 16.2443 278.571 15.8011C279.139 15.3523 279.565 14.75 279.849 13.9943C280.139 13.233 280.284 12.3864 280.284 11.4545C280.284 10.5341 280.142 9.70455 279.858 8.96591C279.58 8.22159 279.156 7.63352 278.588 7.2017C278.026 6.7642 277.318 6.54545 276.466 6.54545C275.648 6.54545 274.96 6.75284 274.403 7.16761C273.847 7.5767 273.426 8.15057 273.142 8.8892C272.858 9.62216 272.716 10.4773 272.716 11.4545ZM285.372 18V4.90909H287.315V6.88636H287.452C287.69 6.23864 288.122 5.71307 288.747 5.30966C289.372 4.90625 290.077 4.70454 290.861 4.70454C291.009 4.70454 291.193 4.70739 291.415 4.71307C291.636 4.71875 291.804 4.72727 291.918 4.73864V6.78409C291.849 6.76705 291.693 6.74148 291.449 6.70739C291.21 6.66761 290.957 6.64773 290.69 6.64773C290.054 6.64773 289.486 6.78125 288.986 7.0483C288.491 7.30966 288.099 7.6733 287.81 8.1392C287.526 8.59943 287.384 9.125 287.384 9.71591V18H285.372ZM299.392 18.2727C298.131 18.2727 297.043 17.9943 296.128 17.4375C295.219 16.875 294.517 16.0909 294.023 15.0852C293.534 14.0739 293.29 12.8977 293.29 11.5568C293.29 10.2159 293.534 9.03409 294.023 8.01136C294.517 6.98295 295.205 6.18182 296.085 5.60795C296.972 5.02841 298.006 4.73864 299.188 4.73864C299.869 4.73864 300.543 4.85227 301.207 5.07954C301.872 5.30682 302.477 5.67614 303.023 6.1875C303.568 6.69318 304.003 7.36364 304.327 8.19886C304.651 9.03409 304.812 10.0625 304.812 11.2841V12.1364H295.306C295.334 13.0073 295.503 13.7545 295.812 14.3778C296.159 15.0597 296.639 15.5795 297.253 15.9375C297.866 16.2898 298.58 16.4659 299.392 16.4659C299.92 16.4659 300.398 16.392 300.824 16.2443C301.256 16.0909 301.628 15.8636 301.94 15.5625C302.253 15.2557 302.494 14.875 302.665 14.4205L304.608 14.9659C304.403 15.625 304.06 16.2045 303.577 16.7045C303.094 17.1989 302.497 17.5852 301.787 17.8636C301.077 18.1364 300.278 18.2727 299.392 18.2727ZM295.311 10.3977H302.767C302.767 9.65909 302.619 9 302.324 8.42045C302.034 7.84091 301.619 7.38352 301.08 7.0483C300.545 6.71307 299.915 6.54545 299.188 6.54545C298.386 6.54545 297.693 6.74432 297.108 7.14205C296.528 7.53409 296.082 8.04545 295.77 8.67614C295.502 9.21662 295.349 9.79048 295.311 10.3977ZM328.736 0.545454V18H326.69L317.179 4.29545H317.009V18H314.895V0.545454H316.94L326.486 14.2841H326.656V0.545454H328.736ZM338.011 18.2727C336.829 18.2727 335.792 17.9915 334.9 17.429C334.014 16.8665 333.32 16.0795 332.82 15.0682C332.326 14.0568 332.079 12.875 332.079 11.5227C332.079 10.1591 332.326 8.96875 332.82 7.9517C333.32 6.93466 334.014 6.14489 334.9 5.58239C335.792 5.01989 336.829 4.73864 338.011 4.73864C339.193 4.73864 340.227 5.01989 341.113 5.58239C342.005 6.14489 342.698 6.93466 343.193 7.9517C343.693 8.96875 343.943 10.1591 343.943 11.5227C343.943 12.875 343.693 14.0568 343.193 15.0682C342.698 16.0795 342.005 16.8665 341.113 17.429C340.227 17.9915 339.193 18.2727 338.011 18.2727ZM338.011 16.4659C338.908 16.4659 339.647 16.2358 340.227 15.7756C340.806 15.3153 341.235 14.7102 341.514 13.9602C341.792 13.2102 341.931 12.3977 341.931 11.5227C341.931 10.6477 341.792 9.83239 341.514 9.0767C341.235 8.32102 340.806 7.71023 340.227 7.24432C339.647 6.77841 338.908 6.54545 338.011 6.54545C337.113 6.54545 336.374 6.77841 335.795 7.24432C335.215 7.71023 334.786 8.32102 334.508 9.0767C334.229 9.83239 334.09 10.6477 334.09 11.5227C334.09 12.3977 334.229 13.2102 334.508 13.9602C334.786 14.7102 335.215 15.3153 335.795 15.7756C336.374 16.2358 337.113 16.4659 338.011 16.4659ZM356.286 7.84091L354.479 8.35227C354.365 8.05114 354.197 7.75852 353.976 7.47443C353.76 7.18466 353.464 6.94602 353.089 6.75852C352.714 6.57102 352.234 6.47727 351.649 6.47727C350.848 6.47727 350.18 6.66193 349.646 7.03125C349.118 7.39489 348.854 7.85795 348.854 8.42045C348.854 8.92045 349.036 9.31534 349.399 9.60511C349.763 9.89489 350.331 10.1364 351.104 10.3295L353.047 10.8068C354.217 11.0909 355.089 11.5256 355.663 12.1108C356.237 12.6903 356.524 13.4375 356.524 14.3523C356.524 15.1023 356.308 15.7727 355.876 16.3636C355.45 16.9545 354.854 17.4205 354.087 17.7614C353.32 18.1023 352.428 18.2727 351.411 18.2727C350.075 18.2727 348.97 17.983 348.095 17.4034C347.22 16.8239 346.666 15.9773 346.433 14.8636L348.342 14.3864C348.524 15.0909 348.868 15.6193 349.374 15.9716C349.885 16.3239 350.553 16.5 351.376 16.5C352.314 16.5 353.058 16.3011 353.609 15.9034C354.166 15.5 354.445 15.017 354.445 14.4545C354.445 14 354.286 13.6193 353.967 13.3125C353.649 13 353.161 12.767 352.501 12.6136L350.32 12.1023C349.121 11.8182 348.24 11.3778 347.678 10.7812C347.121 10.179 346.842 9.42614 346.842 8.52273C346.842 7.78409 347.05 7.13068 347.464 6.5625C347.885 5.99432 348.456 5.5483 349.178 5.22443C349.905 4.90057 350.729 4.73864 351.649 4.73864C352.945 4.73864 353.962 5.02273 354.7 5.59091C355.445 6.15909 355.973 6.90909 356.286 7.84091ZM364.87 18.2727C363.688 18.2727 362.651 17.9915 361.759 17.429C360.873 16.8665 360.18 16.0795 359.68 15.0682C359.185 14.0568 358.938 12.875 358.938 11.5227C358.938 10.1591 359.185 8.96875 359.68 7.9517C360.18 6.93466 360.873 6.14489 361.759 5.58239C362.651 5.01989 363.688 4.73864 364.87 4.73864C366.052 4.73864 367.086 5.01989 367.972 5.58239C368.864 6.14489 369.557 6.93466 370.052 7.9517C370.552 8.96875 370.802 10.1591 370.802 11.5227C370.802 12.875 370.552 14.0568 370.052 15.0682C369.557 16.0795 368.864 16.8665 367.972 17.429C367.086 17.9915 366.052 18.2727 364.87 18.2727ZM364.87 16.4659C365.768 16.4659 366.506 16.2358 367.086 15.7756C367.666 15.3153 368.094 14.7102 368.373 13.9602C368.651 13.2102 368.791 12.3977 368.791 11.5227C368.791 10.6477 368.651 9.83239 368.373 9.0767C368.094 8.32102 367.666 7.71023 367.086 7.24432C366.506 6.77841 365.768 6.54545 364.87 6.54545C363.972 6.54545 363.234 6.77841 362.654 7.24432C362.075 7.71023 361.646 8.32102 361.367 9.0767C361.089 9.83239 360.95 10.6477 360.95 11.5227C360.95 12.3977 361.089 13.2102 361.367 13.9602C361.646 14.7102 362.075 15.3153 362.654 15.7756C363.234 16.2358 363.972 16.4659 364.87 16.4659ZM379.565 4.90909V6.61364H376.77V14.25C376.77 14.8182 376.852 15.2443 377.017 15.5284C377.188 15.8068 377.403 15.9943 377.665 16.0909C377.932 16.1818 378.213 16.2273 378.509 16.2273C378.73 16.2273 378.912 16.2159 379.054 16.1932L379.395 16.125L379.804 17.9318C379.668 17.983 379.477 18.0341 379.233 18.0852C378.989 18.142 378.679 18.1705 378.304 18.1705C377.736 18.1705 377.179 18.0483 376.634 17.804C376.094 17.5597 375.645 17.1875 375.287 16.6875C374.935 16.1875 374.759 15.5568 374.759 14.7955V6.61364H372.781V4.90909H374.759V1.77273H376.77V4.90909H379.565ZM382.591 18V4.90909H384.534V6.88636H384.67C384.909 6.23864 385.341 5.71307 385.966 5.30966C386.591 4.90625 387.295 4.70454 388.08 4.70454C388.227 4.70454 388.412 4.70739 388.634 4.71307C388.855 4.71875 389.023 4.72727 389.136 4.73864V6.78409C389.068 6.76705 388.912 6.74148 388.668 6.70739C388.429 6.66761 388.176 6.64773 387.909 6.64773C387.273 6.64773 386.705 6.78125 386.205 7.0483C385.71 7.30966 385.318 7.6733 385.028 8.1392C384.744 8.59943 384.602 9.125 384.602 9.71591V18H382.591ZM396.44 18.2727C395.259 18.2727 394.222 17.9915 393.33 17.429C392.443 16.8665 391.75 16.0795 391.25 15.0682C390.756 14.0568 390.509 12.875 390.509 11.5227C390.509 10.1591 390.756 8.96875 391.25 7.9517C391.75 6.93466 392.443 6.14489 393.33 5.58239C394.222 5.01989 395.259 4.73864 396.44 4.73864C397.622 4.73864 398.656 5.01989 399.543 5.58239C400.435 6.14489 401.128 6.93466 401.622 7.9517C402.122 8.96875 402.372 10.1591 402.372 11.5227C402.372 12.875 402.122 14.0568 401.622 15.0682C401.128 16.0795 400.435 16.8665 399.543 17.429C398.656 17.9915 397.622 18.2727 396.44 18.2727ZM396.44 16.4659C397.338 16.4659 398.077 16.2358 398.656 15.7756C399.236 15.3153 399.665 14.7102 399.943 13.9602C400.222 13.2102 400.361 12.3977 400.361 11.5227C400.361 10.6477 400.222 9.83239 399.943 9.0767C399.665 8.32102 399.236 7.71023 398.656 7.24432C398.077 6.77841 397.338 6.54545 396.44 6.54545C395.543 6.54545 394.804 6.77841 394.224 7.24432C393.645 7.71023 393.216 8.32102 392.938 9.0767C392.659 9.83239 392.52 10.6477 392.52 11.5227C392.52 12.3977 392.659 13.2102 392.938 13.9602C393.216 14.7102 393.645 15.3153 394.224 15.7756C394.804 16.2358 395.543 16.4659 396.44 16.4659ZM414.715 7.84091L412.908 8.35227C412.795 8.05114 412.627 7.75852 412.406 7.47443C412.19 7.18466 411.894 6.94602 411.519 6.75852C411.144 6.57102 410.664 6.47727 410.079 6.47727C409.278 6.47727 408.61 6.66193 408.076 7.03125C407.548 7.39489 407.283 7.85795 407.283 8.42045C407.283 8.92045 407.465 9.31534 407.829 9.60511C408.193 9.89489 408.761 10.1364 409.533 10.3295L411.477 10.8068C412.647 11.0909 413.519 11.5256 414.093 12.1108C414.667 12.6903 414.954 13.4375 414.954 14.3523C414.954 15.1023 414.738 15.7727 414.306 16.3636C413.88 16.9545 413.283 17.4205 412.516 17.7614C411.749 18.1023 410.857 18.2727 409.84 18.2727C408.505 18.2727 407.4 17.983 406.525 17.4034C405.65 16.8239 405.096 15.9773 404.863 14.8636L406.772 14.3864C406.954 15.0909 407.298 15.6193 407.803 15.9716C408.315 16.3239 408.982 16.5 409.806 16.5C410.744 16.5 411.488 16.3011 412.039 15.9034C412.596 15.5 412.874 15.017 412.874 14.4545C412.874 14 412.715 13.6193 412.397 13.3125C412.079 13 411.59 12.767 410.931 12.6136L408.749 12.1023C407.55 11.8182 406.67 11.3778 406.107 10.7812C405.55 10.179 405.272 9.42614 405.272 8.52273C405.272 7.78409 405.479 7.13068 405.894 6.5625C406.315 5.99432 406.886 5.5483 407.607 5.22443C408.334 4.90057 409.158 4.73864 410.079 4.73864C411.374 4.73864 412.391 5.02273 413.13 5.59091C413.874 6.15909 414.403 6.90909 414.715 7.84091ZM453.415 2.89773C454.142 3.375 454.557 4.04545 454.659 4.90909H456.705C456.676 4.02841 456.403 3.24148 455.886 2.54829C455.375 1.85511 454.682 1.30966 453.807 0.911931C452.932 0.508522 451.932 0.306818 450.807 0.306818C449.693 0.306818 448.685 0.511363 447.781 0.920454C446.884 1.32386 446.168 1.89205 445.634 2.625C445.105 3.35227 444.841 4.20454 444.841 5.18182C444.841 6.35795 445.239 7.30966 446.034 8.03693C446.83 8.7642 447.909 9.32386 449.273 9.71591L451.42 10.3295C452.034 10.5 452.605 10.6989 453.134 10.9261C453.662 11.1534 454.088 11.4489 454.412 11.8125C454.736 12.1761 454.898 12.6477 454.898 13.2273C454.898 13.8636 454.71 14.4205 454.335 14.8977C453.96 15.3693 453.452 15.7386 452.81 16.0057C452.168 16.267 451.443 16.3977 450.636 16.3977C449.943 16.3977 449.295 16.2955 448.693 16.0909C448.097 15.8807 447.602 15.5625 447.21 15.1364C446.824 14.7045 446.602 14.1591 446.545 13.5H444.364C444.432 14.4545 444.724 15.2926 445.241 16.0142C445.764 16.7358 446.48 17.2983 447.389 17.7017C448.304 18.1051 449.386 18.3068 450.636 18.3068C451.977 18.3068 453.116 18.0824 454.054 17.6335C454.997 17.1847 455.713 16.5795 456.202 15.8182C456.696 15.0568 456.943 14.2045 456.943 13.2614C456.943 12.4432 456.776 11.7528 456.44 11.1903C456.105 10.6278 455.679 10.1676 455.162 9.80966C454.651 9.44602 454.114 9.15909 453.551 8.94886C452.994 8.73864 452.489 8.57386 452.034 8.45455L450.261 7.97727C449.938 7.89205 449.582 7.78125 449.196 7.64489C448.81 7.50284 448.44 7.32386 448.088 7.10795C447.736 6.88636 447.446 6.6108 447.219 6.28125C446.997 5.94602 446.886 5.54545 446.886 5.07954C446.886 4.52273 447.045 4.02557 447.364 3.58807C447.688 3.15057 448.136 2.80682 448.71 2.55682C449.29 2.30682 449.966 2.18182 450.739 2.18182C451.795 2.18182 452.688 2.42045 453.415 2.89773ZM462.37 17.4375C463.285 17.9943 464.373 18.2727 465.634 18.2727C466.521 18.2727 467.319 18.1364 468.029 17.8636C468.739 17.5852 469.336 17.1989 469.819 16.7045C470.302 16.2045 470.646 15.625 470.85 14.9659L468.907 14.4205C468.736 14.875 468.495 15.2557 468.182 15.5625C467.87 15.8636 467.498 16.0909 467.066 16.2443C466.64 16.392 466.163 16.4659 465.634 16.4659C464.822 16.4659 464.109 16.2898 463.495 15.9375C462.881 15.5795 462.401 15.0597 462.055 14.3778C461.746 13.7545 461.577 13.0073 461.548 12.1364H471.055V11.2841C471.055 10.0625 470.893 9.03409 470.569 8.19886C470.245 7.36364 469.81 6.69318 469.265 6.1875C468.719 5.67614 468.114 5.30682 467.45 5.07954C466.785 4.85227 466.111 4.73864 465.43 4.73864C464.248 4.73864 463.214 5.02841 462.327 5.60795C461.447 6.18182 460.759 6.98295 460.265 8.01136C459.776 9.03409 459.532 10.2159 459.532 11.5568C459.532 12.8977 459.776 14.0739 460.265 15.0852C460.759 16.0909 461.461 16.875 462.37 17.4375ZM469.009 10.3977H461.553C461.591 9.79048 461.744 9.21662 462.012 8.67614C462.325 8.04545 462.771 7.53409 463.35 7.14205C463.935 6.74432 464.629 6.54545 465.43 6.54545C466.157 6.54545 466.788 6.71307 467.322 7.0483C467.861 7.38352 468.276 7.84091 468.566 8.42045C468.861 9 469.009 9.65909 469.009 10.3977ZM476.893 22.8068C477.592 23.0568 478.427 23.1818 479.398 23.1818C480.444 23.1818 481.393 23.0142 482.245 22.679C483.103 22.3494 483.785 21.8295 484.291 21.1193C484.802 20.4148 485.057 19.5 485.057 18.375V4.90909H483.114V6.98864H482.91C482.762 6.76136 482.552 6.47159 482.279 6.11932C482.012 5.76136 481.626 5.44318 481.12 5.16477C480.62 4.88068 479.944 4.73864 479.092 4.73864C477.989 4.73864 477.018 5.0142 476.177 5.56534C475.336 6.1108 474.68 6.88352 474.208 7.88352C473.736 8.87784 473.501 10.0455 473.501 11.3864C473.501 12.75 473.742 13.9091 474.225 14.8636C474.714 15.8182 475.376 16.5455 476.211 17.0455C477.052 17.5455 478.001 17.7955 479.057 17.7955C479.91 17.7955 480.586 17.6619 481.086 17.3949C481.592 17.1222 481.978 16.8125 482.245 16.4659C482.518 16.1136 482.728 15.8182 482.876 15.5795H483.046V18.2386C483.046 19.3295 482.702 20.1307 482.015 20.642C481.327 21.1534 480.455 21.4091 479.398 21.4091C478.609 21.4091 477.969 21.2926 477.481 21.0597C476.998 20.8324 476.617 20.5625 476.339 20.25C476.06 19.9432 475.83 19.6705 475.648 19.4318L474.046 20.5568C474.319 21.0114 474.685 21.4375 475.146 21.8352C475.611 22.2386 476.194 22.5625 476.893 22.8068ZM481.376 15.4347C480.819 15.804 480.137 15.9886 479.33 15.9886C478.489 15.9886 477.785 15.7926 477.217 15.4006C476.654 15.0028 476.228 14.4574 475.938 13.7642C475.654 13.0653 475.512 12.2614 475.512 11.3523C475.512 10.4659 475.651 9.65909 475.93 8.93182C476.214 8.20455 476.637 7.625 477.2 7.19318C477.768 6.76136 478.478 6.54545 479.33 6.54545C480.148 6.54545 480.836 6.75 481.393 7.15909C481.95 7.56818 482.37 8.13352 482.654 8.85511C482.938 9.5767 483.08 10.4091 483.08 11.3523C483.08 12.3182 482.935 13.1477 482.646 13.8409C482.356 14.5341 481.932 15.0653 481.376 15.4347ZM496.989 4.90909V12.6477C496.989 13.4659 496.81 14.1392 496.452 14.6676C496.1 15.196 495.663 15.5881 495.14 15.8438C494.623 16.0994 494.114 16.2273 493.614 16.2273C492.779 16.2273 492.092 15.9432 491.552 15.375C491.018 14.8068 490.751 14.0455 490.751 13.0909V4.90909H488.739V13.2273C488.739 14.3409 488.921 15.2642 489.285 15.9972C489.648 16.7244 490.148 17.2699 490.785 17.6335C491.421 17.9915 492.148 18.1705 492.967 18.1705C493.955 18.1705 494.773 17.9403 495.421 17.4801C496.069 17.0142 496.546 16.4489 496.853 15.7841H496.989V18H499.001V4.90909H496.989ZM502.685 4.90909V18H504.696V9.71591C504.696 9.125 504.838 8.59943 505.122 8.1392C505.412 7.6733 505.804 7.30966 506.298 7.0483C506.798 6.78125 507.366 6.64773 508.003 6.64773C508.27 6.64773 508.523 6.66761 508.761 6.70739C509.006 6.74148 509.162 6.76705 509.23 6.78409V4.73864C509.116 4.72727 508.949 4.71875 508.727 4.71307C508.506 4.70739 508.321 4.70454 508.173 4.70454C507.389 4.70454 506.685 4.90625 506.06 5.30966C505.435 5.71307 505.003 6.23864 504.764 6.88636H504.628V4.90909H502.685ZM511.614 4.90909V18H513.626V4.90909H511.614ZM511.623 2.3267C511.907 2.59375 512.245 2.72727 512.637 2.72727C513.029 2.72727 513.364 2.59375 513.643 2.3267C513.927 2.05966 514.069 1.73864 514.069 1.36364C514.069 0.988636 513.927 0.667614 513.643 0.400568C513.364 0.133523 513.029 0 512.637 0C512.245 0 511.907 0.133523 511.623 0.400568C511.344 0.667614 511.205 0.988636 511.205 1.36364C511.205 1.73864 511.344 2.05966 511.623 2.3267ZM519.364 17.446C520.199 17.9972 521.162 18.2727 522.253 18.2727C523.094 18.2727 523.767 18.1335 524.273 17.8551C524.778 17.571 525.168 17.25 525.44 16.892C525.713 16.5284 525.923 16.2273 526.071 15.9886H526.31V18H528.253V0.545454H526.241V6.98864H526.071C525.923 6.76136 525.716 6.47159 525.449 6.11932C525.188 5.76136 524.807 5.44318 524.307 5.16477C523.812 4.88068 523.139 4.73864 522.287 4.73864C521.185 4.73864 520.213 5.0142 519.372 5.56534C518.531 6.11648 517.875 6.89773 517.403 7.90909C516.932 8.92045 516.696 10.1136 516.696 11.4886C516.696 12.875 516.932 14.0767 517.403 15.0938C517.875 16.1051 518.528 16.8892 519.364 17.446ZM524.571 15.8352C524.014 16.2557 523.332 16.4659 522.526 16.4659C521.685 16.4659 520.98 16.2443 520.412 15.8011C519.849 15.3523 519.423 14.75 519.134 13.9943C518.849 13.233 518.707 12.3864 518.707 11.4545C518.707 10.5341 518.847 9.70455 519.125 8.96591C519.409 8.22159 519.832 7.63352 520.395 7.2017C520.963 6.7642 521.673 6.54545 522.526 6.54545C523.344 6.54545 524.031 6.75284 524.588 7.16761C525.145 7.5767 525.565 8.15057 525.849 8.8892C526.134 9.62216 526.276 10.4773 526.276 11.4545C526.276 12.4432 526.131 13.3153 525.841 14.071C525.551 14.821 525.128 15.4091 524.571 15.8352ZM533.81 17.8381C534.486 18.1506 535.239 18.3068 536.068 18.3068C536.83 18.3068 537.474 18.1932 538.003 17.9659C538.531 17.7386 538.955 17.4631 539.273 17.1392C539.591 16.8153 539.818 16.5114 539.955 16.2273H540.057V18H542.068V9.375C542.068 8.33523 541.898 7.50568 541.557 6.88636C541.216 6.26705 540.787 5.80398 540.27 5.49716C539.759 5.19034 539.227 4.98864 538.676 4.89204C538.131 4.78977 537.648 4.73864 537.227 4.73864C536.568 4.73864 535.898 4.82955 535.216 5.01136C534.54 5.1875 533.915 5.5 533.341 5.94886C532.773 6.39205 532.318 7.01136 531.977 7.80682L533.886 8.48864C534.108 8.01136 534.491 7.5625 535.037 7.14205C535.582 6.72159 536.335 6.51136 537.295 6.51136C538.222 6.51136 538.912 6.74432 539.366 7.21023C539.827 7.67614 540.057 8.32955 540.057 9.17045V9.23864C540.057 9.5625 539.94 9.78977 539.707 9.92045C539.48 10.0511 539.116 10.1449 538.616 10.2017C538.122 10.2528 537.477 10.3295 536.682 10.4318C536.074 10.5114 535.469 10.6193 534.866 10.7557C534.27 10.8864 533.724 11.0852 533.23 11.3523C532.736 11.6193 532.341 11.9886 532.045 12.4602C531.75 12.9261 531.602 13.5341 531.602 14.2841C531.602 15.1364 531.801 15.8636 532.199 16.4659C532.597 17.0625 533.134 17.5199 533.81 17.8381ZM538.386 16.0312C537.841 16.3438 537.17 16.5 536.375 16.5C535.574 16.5 534.912 16.3239 534.389 15.9716C533.872 15.6136 533.614 15.0852 533.614 14.3864C533.614 13.875 533.75 13.4716 534.023 13.1761C534.301 12.875 534.665 12.6506 535.114 12.5028C535.568 12.3494 536.057 12.2386 536.58 12.1705C536.795 12.142 537.077 12.108 537.423 12.0682C537.776 12.0227 538.136 11.9716 538.506 11.9148C538.881 11.8523 539.21 11.7812 539.494 11.7017C539.784 11.6165 539.972 11.5227 540.057 11.4205V13.2614C540.057 13.8068 539.915 14.3267 539.631 14.821C539.352 15.3153 538.938 15.7188 538.386 16.0312ZM547.793 17.446C548.629 17.9972 549.592 18.2727 550.682 18.2727C551.523 18.2727 552.197 18.1335 552.702 17.8551C553.208 17.571 553.597 17.25 553.87 16.892C554.143 16.5284 554.353 16.2273 554.501 15.9886H554.739V18H556.682V0.545454H554.671V6.98864H554.501C554.353 6.76136 554.146 6.47159 553.879 6.11932C553.617 5.76136 553.236 5.44318 552.736 5.16477C552.242 4.88068 551.569 4.73864 550.717 4.73864C549.614 4.73864 548.643 5.0142 547.802 5.56534C546.961 6.11648 546.305 6.89773 545.833 7.90909C545.361 8.92045 545.126 10.1136 545.126 11.4886C545.126 12.875 545.361 14.0767 545.833 15.0938C546.305 16.1051 546.958 16.8892 547.793 17.446ZM553.001 15.8352C552.444 16.2557 551.762 16.4659 550.955 16.4659C550.114 16.4659 549.41 16.2443 548.842 15.8011C548.279 15.3523 547.853 14.75 547.563 13.9943C547.279 13.233 547.137 12.3864 547.137 11.4545C547.137 10.5341 547.276 9.70455 547.555 8.96591C547.839 8.22159 548.262 7.63352 548.825 7.2017C549.393 6.7642 550.103 6.54545 550.955 6.54545C551.773 6.54545 552.461 6.75284 553.018 7.16761C553.575 7.5767 553.995 8.15057 554.279 8.8892C554.563 9.62216 554.705 10.4773 554.705 11.4545C554.705 12.4432 554.56 13.3153 554.271 14.071C553.981 14.821 553.557 15.4091 553.001 15.8352Z" fill="white"/>
</g>
<defs>
<filter id="filter0_d_3_2" x="0.113647" y="0" width="1062.23" height="33.1819" filterUnits="userSpaceOnUse" color-interpolation-filters="sRGB">
<feFlood flood-opacity="0" result="BackgroundImageFix"/>
<feColorMatrix in="SourceAlpha" type="matrix" values="0 0 0 0 0 0 0 0 0 0 0 0 0 0 0 0 0 0 127 0" result="hardAlpha"/>
<feOffset dy="4"/>
<feGaussianBlur stdDeviation="2"/>
<feComposite in2="hardAlpha" operator="out"/>
<feColorMatrix type="matrix" values="0 0 0 0 0 0 0 0 0 0 0 0 0 0 0 0 0 0 0.25 0"/>
<feBlend mode="normal" in2="BackgroundImageFix" result="effect1_dropShadow_3_2"/>
<feBlend mode="normal" in="SourceGraphic" in2="effect1_dropShadow_3_2" result="shape"/>
</filter>
</defs>
</svg>
